<svg width="96" height="21" viewBox="0 0 96 21" fill="none" xmlns="http://www.w3.org/2000/svg">
<path d="M0.458496 2.22906L95.1644 0.464355L93.9879 20.4428H1.34085L0.458496 2.22906Z" fill="#FF453A"/>
<path d="M9.97412 16.3271L9.37598 18.7686C7.06478 18.8499 5.58366 18.8418 4.93262 18.7441C7.44727 7.35091 8.729 1.58105 8.77783 1.43457C9.09521 1.42643 9.40853 1.41423 9.71777 1.39795C10.2712 1.38167 10.8937 1.37354 11.5854 1.37354C12.2772 1.37354 12.9038 1.38167 13.4653 1.39795C13.7664 1.41423 14.0757 1.42643 14.3931 1.43457C14.4419 1.58105 15.6829 7.35091 18.1162 18.7441C17.1478 18.8418 15.7074 18.8499 13.7949 18.7686L13.2822 16.3027L9.97412 16.3271ZM12.1714 12.1035L11.5854 9.68652L10.9873 12.1401C11.4186 12.132 11.8133 12.1198 12.1714 12.1035ZM23.2432 13.1411C23.4548 14.1177 24.0448 14.7036 25.0132 14.8989C25.9084 14.8908 26.5146 14.5856 26.832 13.9834C27.0518 13.4382 27.0924 12.8481 26.9541 12.2134C26.71 11.0741 25.9775 10.5044 24.7568 10.5044C23.7559 10.659 23.2391 11.1351 23.2065 11.9326C23.1333 12.2826 23.1455 12.6854 23.2432 13.1411ZM27.2959 17.8164C26.5065 18.4268 25.5788 18.736 24.5127 18.7441C22.999 18.7523 21.6359 18.1541 20.4233 16.9497C19.6828 16.0464 19.1701 14.9233 18.8853 13.5806C18.3726 11.1636 18.8201 9.1901 20.228 7.66016C21.0418 6.77311 22.3398 6.24414 24.1221 6.07324C25.1556 6.0651 26.0711 6.31738 26.8687 6.83008C26.8605 3.15169 26.8564 1.30029 26.8564 1.27588C28.9398 1.21891 30.6406 1.21077 31.959 1.25146L31.3853 18.7808C29.3914 18.8459 28.0405 18.8418 27.3325 18.7686C27.3162 18.443 27.304 18.1257 27.2959 17.8164ZM39.7593 18.8296C39.092 18.8296 38.4938 18.8215 37.9648 18.8052C37.6719 18.797 37.3748 18.7889 37.0737 18.7808C37.0249 18.675 35.7594 14.6304 33.2773 6.64697C33.8958 6.57373 35.3485 6.50863 37.6353 6.45166L39.7593 12.9092L41.8711 6.45166C43.694 6.50863 45.1466 6.57373 46.229 6.64697C43.7469 14.6304 42.4814 18.675 42.4326 18.7808C42.1315 18.7889 41.8385 18.797 41.5537 18.8052C41.0166 18.8215 40.4185 18.8296 39.7593 18.8296ZM47.0469 6.63477C48.8942 6.58594 50.3997 6.58187 51.5635 6.62256L51.0508 18.7808C49.293 18.8377 48.1007 18.8337 47.4741 18.7686C47.173 10.7852 47.0306 6.74056 47.0469 6.63477ZM49.4272 0.995117C51.2013 0.938151 51.9907 1.72754 51.7954 3.36328C51.6001 4.99089 50.7741 5.78434 49.3174 5.74365C47.8607 5.70296 47.0713 4.91764 46.9492 3.3877C46.8271 1.84961 47.6532 1.05208 49.4272 0.995117ZM56.2632 13.8735C57.7687 14.3537 58.5378 14.7158 58.5703 14.96C58.6029 15.196 58.2204 15.3302 57.4229 15.3628C56.6335 15.3872 55.5837 14.9518 54.2734 14.0566C53.6143 14.8786 53.0039 15.6191 52.4424 16.2783C54.0374 18.0117 55.7993 18.854 57.728 18.8052C59.5835 18.8784 60.9222 18.5163 61.7441 17.7188C62.5742 16.9131 62.855 15.8592 62.5864 14.5571C62.3179 13.2469 61.3983 12.3314 59.8276 11.8105C58.2651 11.2816 57.4391 10.9357 57.3496 10.7729C57.2682 10.6102 57.549 10.4881 58.1919 10.4067C58.8348 10.3172 59.5184 10.5125 60.2427 10.9927L62.6719 8.35596C61.3372 7.17594 59.7829 6.59001 58.0088 6.59814C56.1045 6.7609 54.717 7.27767 53.8462 8.14844C53.0975 9.14941 52.9388 10.2318 53.3701 11.3955C53.8014 12.5592 54.7658 13.3853 56.2632 13.8735ZM69.7031 6.07324C71.5667 6.0651 73.0885 6.72835 74.2686 8.06299C74.9603 8.81169 75.4079 9.61735 75.6113 10.48C75.9857 12.5633 75.652 14.5531 74.6104 16.4492C73.5036 17.971 72.0143 18.736 70.1426 18.7441C68.4499 18.7523 66.924 18.1541 65.5649 16.9497C64.743 16.0464 64.1733 14.9233 63.856 13.5806C63.2863 11.1636 63.7868 9.1901 65.3574 7.66016C66.2689 6.77311 67.7174 6.24414 69.7031 6.07324ZM68.4336 13.1411C68.6452 14.1177 69.2352 14.7036 70.2036 14.8989C71.0988 14.8908 71.7051 14.5856 72.0225 13.9834C72.2422 13.4382 72.2829 12.8481 72.1445 12.2134C71.9004 11.0741 71.168 10.5044 69.9473 10.5044C68.9463 10.659 68.4295 11.1351 68.397 11.9326C68.3237 12.2826 68.3359 12.6854 68.4336 13.1411ZM85.2061 11.0171C84.9538 10.7567 84.5632 10.5858 84.0342 10.5044C82.8135 10.5044 82.0811 11.0741 81.8369 12.2134C81.8044 12.3761 81.8084 14.5856 81.8491 18.8418L77.2593 18.8906L76.832 6.13428C78.1504 6.09359 79.8512 6.10173 81.9346 6.15869C81.9427 6.18311 81.9386 6.4069 81.9224 6.83008C82.7199 6.31738 83.6354 6.0651 84.6689 6.07324C85.9873 6.19531 87.0371 6.51676 87.8184 7.0376L85.2061 11.0171Z" fill="white"/>
</svg>
