<svg version="1.1" viewBox="0.0 0.0 600.0 371.0" fill="none" stroke="none" stroke-linecap="square" stroke-miterlimit="10" width="600" height="371" xmlns:xlink="http://www.w3.org/1999/xlink" xmlns="http://www.w3.org/2000/svg"><path fill="#ffffff" d="M0 0L600.0 0L600.0 371.0L0 371.0L0 0Z" fill-rule="nonzero"/><path fill="#4285f4" d="M300.0 18.55C372.32712 18.55 436.4286 65.12243 458.7789 133.9096L300.0 185.5Z" fill-rule="nonzero"/><path fill="#ea4335" d="M458.7789 133.9096C475.2932 184.73553 466.47754 240.39565 435.0654 283.63074L300.0 185.5Z" fill-rule="nonzero"/><path fill="#7baaf7" d="M248.4096 26.721115C265.07117 21.307446 282.481 18.55 300.0 18.55L300.0 185.5Z" fill-rule="nonzero"/><path fill="#46bdc6" d="M164.93462 87.369255C185.65779 58.846245 214.8788 37.615932 248.4096 26.721115L300.0 185.5Z" fill-rule="nonzero"/><path fill="#ff6d01" d="M141.22112 133.9096C146.63478 117.248055 154.6372 101.54242 164.93462 87.369255L300.0 185.5Z" fill-rule="nonzero"/><path fill="#34a853" d="M164.93462 283.63074C133.52246 240.39565 124.70677 184.73553 141.22112 133.9096L300.0 185.5Z" fill-rule="nonzero"/><path fill="#fbbc04" d="M435.0654 283.63074C403.65323 326.86584 353.44153 352.45 300.0 352.45C246.55847 352.45 196.34676 326.86584 164.93462 283.63074L300.0 185.5Z" fill-rule="nonzero"/><path fill="#1a1a1a" d="M25.1125 20.95625L26.253124 20.95625L26.253124 25.925Q26.253124 27.221874 25.95625 27.9875Q25.659374 28.7375 24.89375 29.221874Q24.128124 29.690624 22.89375 29.690624Q21.690624 29.690624 20.909374 29.284374Q20.14375 28.8625 19.815624 28.08125Q19.4875 27.284374 19.4875 25.925L19.4875 20.95625L20.628124 20.95625L20.628124 25.909374Q20.628124 27.034374 20.83125 27.565624Q21.05 28.096874 21.55 28.39375Q22.065624 28.675 22.8 28.675Q24.05 28.675 24.58125 28.1125Q25.1125 27.534374 25.1125 25.909374L25.1125 20.95625ZM27.925 27.690624L28.95625 27.534374Q29.05 28.159374 29.440624 28.4875Q29.846874 28.815624 30.58125 28.815624Q31.3 28.815624 31.64375 28.534374Q32.003124 28.2375 32.003124 27.83125Q32.003124 27.471874 31.690624 27.26875Q31.471874 27.128124 30.6125 26.909374Q29.45625 26.6125 29.003124 26.409374Q28.565624 26.190624 28.33125 25.815624Q28.096874 25.440624 28.096874 24.971874Q28.096874 24.565624 28.284374 24.20625Q28.471874 23.846874 28.8 23.6125Q29.05 23.440624 29.471874 23.315624Q29.89375 23.190624 30.39375 23.190624Q31.1125 23.190624 31.659374 23.409374Q32.221874 23.6125 32.4875 23.971874Q32.753124 24.33125 32.846874 24.925L31.815624 25.065624Q31.753124 24.596874 31.409374 24.33125Q31.08125 24.05 30.45625 24.05Q29.7375 24.05 29.425 24.3Q29.1125 24.534374 29.1125 24.8625Q29.1125 25.065624 29.2375 25.221874Q29.378124 25.39375 29.64375 25.503124Q29.8 25.565624 30.58125 25.76875Q31.70625 26.08125 32.14375 26.26875Q32.58125 26.45625 32.83125 26.815624Q33.08125 27.175 33.08125 27.721874Q33.08125 28.253124 32.76875 28.721874Q32.471874 29.175 31.89375 29.440624Q31.315624 29.690624 30.58125 29.690624Q29.3625 29.690624 28.721874 29.190624Q28.096874 28.675 27.925 27.690624ZM39.596874 27.55L40.690624 27.675Q40.440624 28.628124 39.7375 29.159374Q39.034374 29.690624 37.95625 29.690624Q36.596874 29.690624 35.784374 28.846874Q34.9875 28.003124 34.9875 26.4875Q34.9875 24.925 35.8 24.065624Q36.6125 23.190624 37.89375 23.190624Q39.14375 23.190624 39.925 24.034374Q40.721874 24.878124 40.721874 26.425Q40.721874 26.51875 40.721874 26.70625L36.08125 26.70625Q36.14375 27.7375 36.659374 28.284374Q37.175 28.815624 37.95625 28.815624Q38.534374 28.815624 38.940624 28.51875Q39.3625 28.20625 39.596874 27.55ZM36.14375 25.846874L39.6125 25.846874Q39.55 25.05 39.221874 24.659374Q38.70625 24.05 37.909374 24.05Q37.175 24.05 36.675 24.534374Q36.190624 25.01875 36.14375 25.846874ZM42.33125 29.55L42.33125 23.33125L43.284374 23.33125L43.284374 24.26875Q43.64375 23.6125 43.940624 23.409374Q44.253124 23.190624 44.628124 23.190624Q45.159374 23.190624 45.70625 23.51875L45.346874 24.503124Q44.95625 24.26875 44.58125 24.26875Q44.221874 24.26875 43.940624 24.4875Q43.675 24.690624 43.565624 25.065624Q43.378124 25.628124 43.378124 26.284374L43.378124 29.55L42.33125 29.55ZM49.346874 22.175L49.346874 20.95625L50.409374 20.95625L50.409374 22.175L49.346874 22.175ZM49.346874 29.55L49.346874 23.33125L50.409374 23.33125L50.409374 29.55L49.346874 29.55ZM52.346874 29.55L52.346874 23.33125L53.284374 23.33125L53.284374 24.20625Q53.971874 23.190624 55.26875 23.190624Q55.83125 23.190624 56.3 23.39375Q56.784374 23.596874 57.01875 23.925Q57.253124 24.253124 57.346874 24.690624Q57.39375 24.9875 57.39375 25.721874L57.39375 29.55L56.346874 29.55L56.346874 25.76875Q56.346874 25.1125 56.221874 24.8Q56.096874 24.4875 55.784374 24.3Q55.471874 24.096874 55.05 24.096874Q54.378124 24.096874 53.878124 24.534374Q53.39375 24.95625 53.39375 26.14375L53.39375 29.55L52.346874 29.55ZM63.409374 27.26875L64.44063 27.409374Q64.26875 28.471874 63.565624 29.08125Q62.8625 29.690624 61.846874 29.690624Q60.565624 29.690624 59.784374 28.8625Q59.01875 28.01875 59.01875 26.45625Q59.01875 25.45625 59.346874 24.70625Q59.690624 23.940624 60.3625 23.565624Q61.05 23.190624 61.8625 23.190624Q62.8625 23.190624 63.503124 23.70625Q64.15938 24.20625 64.34688 25.159374L63.315624 25.315624Q63.175 24.690624 62.8 24.378124Q62.425 24.05 61.89375 24.05Q61.096874 24.05 60.596874 24.628124Q60.096874 25.190624 60.096874 26.425Q60.096874 27.690624 60.58125 28.253124Q61.065624 28.815624 61.83125 28.815624Q62.45625 28.815624 62.8625 28.440624Q63.284374 28.065624 63.409374 27.26875ZM69.59688 27.55L70.69063 27.675Q70.44063 28.628124 69.7375 29.159374Q69.03438 29.690624 67.95625 29.690624Q66.59688 29.690624 65.78438 28.846874Q64.9875 28.003124 64.9875 26.4875Q64.9875 24.925 65.8 24.065624Q66.6125 23.190624 67.89375 23.190624Q69.14375 23.190624 69.925 24.034374Q70.72188 24.878124 70.72188 26.425Q70.72188 26.51875 70.72188 26.70625L66.08125 26.70625Q66.14375 27.7375 66.65938 28.284374Q67.175 28.815624 67.95625 28.815624Q68.53438 28.815624 68.94063 28.51875Q69.3625 28.20625 69.59688 27.55ZM66.14375 25.846874L69.6125 25.846874Q69.55 25.05 69.22188 24.659374Q68.70625 24.05 67.90938 24.05Q67.175 24.05 66.675 24.534374Q66.19063 25.01875 66.14375 25.846874ZM72.34688 29.55L72.34688 23.33125L73.28438 23.33125L73.28438 24.20625Q73.97188 23.190624 75.26875 23.190624Q75.83125 23.190624 76.3 23.39375Q76.78438 23.596874 77.01875 23.925Q77.25313 24.253124 77.34688 24.690624Q77.39375 24.9875 77.39375 25.721874L77.39375 29.55L76.34688 29.55L76.34688 25.76875Q76.34688 25.1125 76.22188 24.8Q76.09688 24.4875 75.78438 24.3Q75.47188 24.096874 75.05 24.096874Q74.37813 24.096874 73.87813 24.534374Q73.39375 24.95625 73.39375 26.14375L73.39375 29.55L72.34688 29.55ZM81.64375 28.6125L81.8 29.534374Q81.34688 29.628124 81.00313 29.628124Q80.425 29.628124 80.1125 29.45625Q79.8 29.26875 79.65938 28.971874Q79.53438 28.675 79.53438 27.721874L79.53438 24.14375L78.76875 24.14375L78.76875 23.33125L79.53438 23.33125L79.53438 21.784374L80.58125 21.159374L80.58125 23.33125L81.64375 23.33125L81.64375 24.14375L80.58125 24.14375L80.58125 27.784374Q80.58125 28.2375 80.62813 28.3625Q80.69063 28.4875 80.81563 28.565624Q80.94063 28.64375 81.175 28.64375Q81.3625 28.64375 81.64375 28.6125ZM82.34688 22.175L82.34688 20.95625L83.40938 20.95625L83.40938 22.175L82.34688 22.175ZM82.34688 29.55L82.34688 23.33125L83.40938 23.33125L83.40938 29.55L82.34688 29.55ZM87.06563 29.55L84.70625 23.33125L85.81563 23.33125L87.15938 27.05Q87.3625 27.659374 87.55 28.3Q87.69063 27.815624 87.94063 27.128124L89.33125 23.33125L90.40938 23.33125L88.05 29.55L87.06563 29.55ZM94.59688 27.55L95.69063 27.675Q95.44063 28.628124 94.7375 29.159374Q94.03438 29.690624 92.95625 29.690624Q91.59688 29.690624 90.78438 28.846874Q89.9875 28.003124 89.9875 26.4875Q89.9875 24.925 90.8 24.065624Q91.6125 23.190624 92.89375 23.190624Q94.14375 23.190624 94.925 24.034374Q95.72188 24.878124 95.72188 26.425Q95.72188 26.51875 95.72188 26.70625L91.08125 26.70625Q91.14375 27.7375 91.65938 28.284374Q92.175 28.815624 92.95625 28.815624Q93.53438 28.815624 93.94063 28.51875Q94.3625 28.20625 94.59688 27.55ZM91.14375 25.846874L94.6125 25.846874Q94.55 25.05 94.22188 24.659374Q93.70625 24.05 92.90938 24.05Q92.175 24.05 91.675 24.534374Q91.19063 25.01875 91.14375 25.846874Z" fill-rule="nonzero"/><path fill="#9e9e9e" d="M19.05 44.3L20.159374 44.20625Q20.284374 45.01875 20.721874 45.425Q21.175 45.83125 21.815624 45.83125Q22.565624 45.83125 23.096874 45.253124Q23.628124 44.675 23.628124 43.7375Q23.628124 42.83125 23.1125 42.315624Q22.6125 41.784374 21.784374 41.784374Q21.284374 41.784374 20.8625 42.01875Q20.45625 42.253124 20.221874 42.6125L19.2375 42.4875L20.065624 38.08125L24.346874 38.08125L24.346874 39.08125L20.909374 39.08125L20.45625 41.39375Q21.221874 40.846874 22.065624 40.846874Q23.190624 40.846874 23.95625 41.628124Q24.7375 42.409374 24.7375 43.64375Q24.7375 44.8 24.065624 45.659374Q23.2375 46.690624 21.815624 46.690624Q20.64375 46.690624 19.89375 46.034374Q19.159374 45.378124 19.05 44.3ZM26.6125 46.55L26.6125 45.346874L27.815624 45.346874L27.815624 46.55Q27.815624 47.20625 27.58125 47.6125Q27.346874 48.034374 26.846874 48.253124L26.55 47.8Q26.878124 47.659374 27.034374 47.3625Q27.190624 47.08125 27.221874 46.55L26.6125 46.55ZM29.05 42.315624Q29.05 40.784374 29.3625 39.8625Q29.675 38.925 30.284374 38.425Q30.909374 37.925 31.846874 37.925Q32.534374 37.925 33.05 38.20625Q33.58125 38.4875 33.925 39.01875Q34.26875 39.534374 34.45625 40.284374Q34.64375 41.034374 34.64375 42.315624Q34.64375 43.83125 34.33125 44.753124Q34.034374 45.675 33.409374 46.190624Q32.8 46.690624 31.846874 46.690624Q30.6125 46.690624 29.89375 45.8Q29.05 44.7375 29.05 42.315624ZM30.128124 42.315624Q30.128124 44.425 30.628124 45.128124Q31.128124 45.83125 31.846874 45.83125Q32.58125 45.83125 33.065624 45.128124Q33.565624 44.425 33.565624 42.315624Q33.565624 40.190624 33.065624 39.503124Q32.58125 38.8 31.83125 38.8Q31.1125 38.8 30.675 39.409374Q30.128124 40.190624 30.128124 42.315624ZM36.253124 40.01875Q36.253124 39.096874 36.70625 38.45625Q37.175 37.815624 38.05 37.815624Q38.8625 37.815624 39.39375 38.39375Q39.925 38.971874 39.925 40.08125Q39.925 41.175 39.378124 41.76875Q38.846874 42.346874 38.065624 42.346874Q37.284374 42.346874 36.76875 41.76875Q36.253124 41.190624 36.253124 40.01875ZM38.08125 38.534374Q37.690624 38.534374 37.425 38.878124Q37.175 39.221874 37.175 40.128124Q37.175 40.95625 37.425 41.3Q37.690624 41.628124 38.08125 41.628124Q38.4875 41.628124 38.7375 41.284374Q39.003124 40.940624 39.003124 40.05Q39.003124 39.20625 38.7375 38.878124Q38.471874 38.534374 38.08125 38.534374ZM38.08125 46.8625L42.784374 37.815624L43.64375 37.815624L38.95625 46.8625L38.08125 46.8625ZM41.8 44.534374Q41.8 43.6125 42.253124 42.971874Q42.721874 42.33125 43.6125 42.33125Q44.425 42.33125 44.95625 42.909374Q45.4875 43.471874 45.4875 44.596874Q45.4875 45.690624 44.940624 46.284374Q44.409374 46.8625 43.6125 46.8625Q42.846874 46.8625 42.315624 46.284374Q41.8 45.70625 41.8 44.534374ZM43.64375 43.05Q43.2375 43.05 42.971874 43.39375Q42.721874 43.7375 42.721874 44.64375Q42.721874 45.45625 42.9875 45.8Q43.253124 46.14375 43.64375 46.14375Q44.034374 46.14375 44.3 45.8Q44.565624 45.45625 44.565624 44.55Q44.565624 43.721874 44.3 43.39375Q44.034374 43.05 43.64375 43.05Z" fill-rule="nonzero"/><path stroke="#757575" stroke-width="1.0" stroke-linecap="butt" d="M18.55 34.05L127.05 34.05L275.18912 28.85016" fill-rule="nonzero"/><path fill="#9e9e9e" d="M277.18912 28.85016C277.18912 27.74559 276.29367 26.85016 275.18912 26.85016C274.08453 26.85016 273.18912 27.74559 273.18912 28.85016C273.18912 29.95473 274.08453 30.85016 275.18912 30.85016C276.29367 30.85016 277.18912 29.95473 277.18912 28.85016" fill-rule="nonzero"/><path fill="#1a1a1a" d="M19.471874 60.55L19.471874 51.95625L22.721874 51.95625Q23.565624 51.95625 24.01875 52.034374Q24.659374 52.14375 25.08125 52.440624Q25.51875 52.7375 25.76875 53.26875Q26.034374 53.8 26.034374 54.440624Q26.034374 55.534374 25.33125 56.3Q24.64375 57.05 22.815624 57.05L20.6125 57.05L20.6125 60.55L19.471874 60.55ZM20.6125 56.05L22.83125 56.05Q23.940624 56.05 24.39375 55.64375Q24.8625 55.221874 24.8625 54.471874Q24.8625 53.940624 24.58125 53.565624Q24.315624 53.175 23.878124 53.05Q23.58125 52.971874 22.815624 52.971874L20.6125 52.971874L20.6125 56.05ZM27.315624 60.55L27.315624 51.95625L28.378124 51.95625L28.378124 60.55L27.315624 60.55ZM34.409374 59.784374Q33.815624 60.284374 33.26875 60.4875Q32.7375 60.690624 32.1125 60.690624Q31.08125 60.690624 30.534374 60.190624Q29.9875 59.690624 29.9875 58.909374Q29.9875 58.45625 30.190624 58.08125Q30.39375 57.690624 30.7375 57.471874Q31.08125 57.2375 31.503124 57.128124Q31.8 57.034374 32.440624 56.95625Q33.70625 56.815624 34.315624 56.596874Q34.315624 56.378124 34.315624 56.33125Q34.315624 55.675 34.01875 55.409374Q33.6125 55.065624 32.815624 55.065624Q32.08125 55.065624 31.721874 55.33125Q31.3625 55.58125 31.190624 56.2375L30.159374 56.096874Q30.3 55.440624 30.628124 55.034374Q30.95625 54.628124 31.565624 54.409374Q32.175 54.190624 32.971874 54.190624Q33.76875 54.190624 34.26875 54.378124Q34.76875 54.565624 35.003124 54.846874Q35.2375 55.128124 35.33125 55.565624Q35.378124 55.83125 35.378124 56.534374L35.378124 57.940624Q35.378124 59.409374 35.440624 59.8Q35.51875 60.190624 35.721874 60.55L34.6125 60.55Q34.45625 60.221874 34.409374 59.784374ZM34.315624 57.425Q33.7375 57.659374 32.596874 57.83125Q31.940624 57.925 31.675 58.05Q31.409374 58.159374 31.253124 58.378124Q31.1125 58.596874 31.1125 58.878124Q31.1125 59.3 31.425 59.58125Q31.753124 59.8625 32.3625 59.8625Q32.971874 59.8625 33.440624 59.596874Q33.925 59.33125 34.14375 58.8625Q34.315624 58.503124 34.315624 57.815624L34.315624 57.425ZM37.3 62.940624L37.175 61.95625Q37.51875 62.05 37.784374 62.05Q38.128124 62.05 38.33125 61.925Q38.55 61.815624 38.690624 61.6125Q38.784374 61.440624 39.01875 60.815624Q39.034374 60.7375 39.1125 60.565624L36.7375 54.33125L37.878124 54.33125L39.175 57.925Q39.425 58.6125 39.628124 59.378124Q39.815624 58.64375 40.065624 57.95625L41.39375 54.33125L42.440624 54.33125L40.08125 60.659374Q39.690624 61.675 39.4875 62.065624Q39.20625 62.596874 38.83125 62.83125Q38.471874 63.08125 37.971874 63.08125Q37.675 63.08125 37.3 62.940624ZM47.64375 59.6125L47.8 60.534374Q47.346874 60.628124 47.003124 60.628124Q46.425 60.628124 46.1125 60.45625Q45.8 60.26875 45.659374 59.971874Q45.534374 59.675 45.534374 58.721874L45.534374 55.14375L44.76875 55.14375L44.76875 54.33125L45.534374 54.33125L45.534374 52.784374L46.58125 52.159374L46.58125 54.33125L47.64375 54.33125L47.64375 55.14375L46.58125 55.14375L46.58125 58.784374Q46.58125 59.2375 46.628124 59.3625Q46.690624 59.4875 46.815624 59.565624Q46.940624 59.64375 47.175 59.64375Q47.3625 59.64375 47.64375 59.6125ZM47.95625 57.440624Q47.95625 55.70625 48.909374 54.878124Q49.70625 54.190624 50.8625 54.190624Q52.14375 54.190624 52.95625 55.034374Q53.784374 55.8625 53.784374 57.346874Q53.784374 58.55 53.425 59.2375Q53.065624 59.925 52.3625 60.315624Q51.675 60.690624 50.8625 60.690624Q49.565624 60.690624 48.753124 59.8625Q47.95625 59.01875 47.95625 57.440624ZM49.034374 57.440624Q49.034374 58.628124 49.55 59.221874Q50.08125 59.815624 50.8625 59.815624Q51.659374 59.815624 52.175 59.221874Q52.690624 58.628124 52.690624 57.409374Q52.690624 56.253124 52.159374 55.659374Q51.64375 55.065624 50.8625 55.065624Q50.08125 55.065624 49.55 55.659374Q49.034374 56.2375 49.034374 57.440624ZM62.596874 58.55L63.690624 58.675Q63.440624 59.628124 62.7375 60.159374Q62.034374 60.690624 60.95625 60.690624Q59.596874 60.690624 58.784374 59.846874Q57.9875 59.003124 57.9875 57.4875Q57.9875 55.925 58.8 55.065624Q59.6125 54.190624 60.89375 54.190624Q62.14375 54.190624 62.925 55.034374Q63.721874 55.878124 63.721874 57.425Q63.721874 57.51875 63.721874 57.70625L59.08125 57.70625Q59.14375 58.7375 59.659374 59.284374Q60.175 59.815624 60.95625 59.815624Q61.534374 59.815624 61.940624 59.51875Q62.3625 59.20625 62.596874 58.55ZM59.14375 56.846874L62.6125 56.846874Q62.55 56.05 62.221874 55.659374Q61.70625 55.05 60.909374 55.05Q60.175 55.05 59.675 55.534374Q59.190624 56.01875 59.14375 56.846874ZM69.40938 59.784374Q68.81563 60.284374 68.26875 60.4875Q67.7375 60.690624 67.1125 60.690624Q66.08125 60.690624 65.53438 60.190624Q64.9875 59.690624 64.9875 58.909374Q64.9875 58.45625 65.19063 58.08125Q65.39375 57.690624 65.7375 57.471874Q66.08125 57.2375 66.50313 57.128124Q66.8 57.034374 67.44063 56.95625Q68.70625 56.815624 69.31563 56.596874Q69.31563 56.378124 69.31563 56.33125Q69.31563 55.675 69.01875 55.409374Q68.6125 55.065624 67.81563 55.065624Q67.08125 55.065624 66.72188 55.33125Q66.3625 55.58125 66.19063 56.2375L65.15938 56.096874Q65.3 55.440624 65.62813 55.034374Q65.95625 54.628124 66.56563 54.409374Q67.175 54.190624 67.97188 54.190624Q68.76875 54.190624 69.26875 54.378124Q69.76875 54.565624 70.00313 54.846874Q70.2375 55.128124 70.33125 55.565624Q70.37813 55.83125 70.37813 56.534374L70.37813 57.940624Q70.37813 59.409374 70.44063 59.8Q70.51875 60.190624 70.72188 60.55L69.6125 60.55Q69.45625 60.221874 69.40938 59.784374ZM69.31563 57.425Q68.7375 57.659374 67.59688 57.83125Q66.94063 57.925 66.675 58.05Q66.40938 58.159374 66.25313 58.378124Q66.1125 58.596874 66.1125 58.878124Q66.1125 59.3 66.425 59.58125Q66.75313 59.8625 67.3625 59.8625Q67.97188 59.8625 68.44063 59.596874Q68.925 59.33125 69.14375 58.8625Q69.31563 58.503124 69.31563 57.815624L69.31563 57.425ZM72.33125 60.55L72.33125 54.33125L73.28438 54.33125L73.28438 55.26875Q73.64375 54.6125 73.94063 54.409374Q74.25313 54.190624 74.62813 54.190624Q75.15938 54.190624 75.70625 54.51875L75.34688 55.503124Q74.95625 55.26875 74.58125 55.26875Q74.22188 55.26875 73.94063 55.4875Q73.675 55.690624 73.56563 56.065624Q73.37813 56.628124 73.37813 57.284374L73.37813 60.55L72.33125 60.55ZM76.34688 60.55L76.34688 54.33125L77.28438 54.33125L77.28438 55.20625Q77.97188 54.190624 79.26875 54.190624Q79.83125 54.190624 80.3 54.39375Q80.78438 54.596874 81.01875 54.925Q81.25313 55.253124 81.34688 55.690624Q81.39375 55.9875 81.39375 56.721874L81.39375 60.55L80.34688 60.55L80.34688 56.76875Q80.34688 56.1125 80.22188 55.8Q80.09688 55.4875 79.78438 55.3Q79.47188 55.096874 79.05 55.096874Q78.37813 55.096874 77.87813 55.534374Q77.39375 55.95625 77.39375 57.14375L77.39375 60.55L76.34688 60.55Z" fill-rule="nonzero"/><path fill="#9e9e9e" d="M23.01875 77.55L21.971874 77.55L21.971874 70.83125Q21.58125 71.19063 20.95625 71.56563Q20.346874 71.925 19.8625 72.09688L19.8625 71.08125Q20.7375 70.65938 21.39375 70.08125Q22.065624 69.4875 22.346874 68.925L23.01875 68.925L23.01875 77.55ZM26.05 73.31563Q26.05 71.78438 26.3625 70.8625Q26.675 69.925 27.284374 69.425Q27.909374 68.925 28.846874 68.925Q29.534374 68.925 30.05 69.20625Q30.58125 69.4875 30.925 70.01875Q31.26875 70.53438 31.45625 71.28438Q31.64375 72.03438 31.64375 73.31563Q31.64375 74.83125 31.33125 75.75313Q31.034374 76.675 30.409374 77.19063Q29.8 77.69063 28.846874 77.69063Q27.6125 77.69063 26.89375 76.8Q26.05 75.7375 26.05 73.31563ZM27.128124 73.31563Q27.128124 75.425 27.628124 76.12813Q28.128124 76.83125 28.846874 76.83125Q29.58125 76.83125 30.065624 76.12813Q30.565624 75.425 30.565624 73.31563Q30.565624 71.19063 30.065624 70.50313Q29.58125 69.8 28.83125 69.8Q28.1125 69.8 27.675 70.40938Q27.128124 71.19063 27.128124 73.31563ZM33.6125 77.55L33.6125 76.34688L34.815624 76.34688L34.815624 77.55Q34.815624 78.20625 34.58125 78.6125Q34.346874 79.03438 33.846874 79.25313L33.55 78.8Q33.878124 78.65938 34.034374 78.3625Q34.190624 78.08125 34.221874 77.55L33.6125 77.55ZM36.05 73.31563Q36.05 71.78438 36.3625 70.8625Q36.675 69.925 37.284374 69.425Q37.909374 68.925 38.846874 68.925Q39.534374 68.925 40.05 69.20625Q40.58125 69.4875 40.925 70.01875Q41.26875 70.53438 41.45625 71.28438Q41.64375 72.03438 41.64375 73.31563Q41.64375 74.83125 41.33125 75.75313Q41.034374 76.675 40.409374 77.19063Q39.8 77.69063 38.846874 77.69063Q37.6125 77.69063 36.89375 76.8Q36.05 75.7375 36.05 73.31563ZM37.128124 73.31563Q37.128124 75.425 37.628124 76.12813Q38.128124 76.83125 38.846874 76.83125Q39.58125 76.83125 40.065624 76.12813Q40.565624 75.425 40.565624 73.31563Q40.565624 71.19063 40.065624 70.50313Q39.58125 69.8 38.83125 69.8Q38.1125 69.8 37.675 70.40938Q37.128124 71.19063 37.128124 73.31563ZM43.253124 71.01875Q43.253124 70.09688 43.70625 69.45625Q44.175 68.81563 45.05 68.81563Q45.8625 68.81563 46.39375 69.39375Q46.925 69.97188 46.925 71.08125Q46.925 72.175 46.378124 72.76875Q45.846874 73.34688 45.065624 73.34688Q44.284374 73.34688 43.76875 72.76875Q43.253124 72.19063 43.253124 71.01875ZM45.08125 69.53438Q44.690624 69.53438 44.425 69.87813Q44.175 70.22188 44.175 71.12813Q44.175 71.95625 44.425 72.3Q44.690624 72.62813 45.08125 72.62813Q45.4875 72.62813 45.7375 72.28438Q46.003124 71.94063 46.003124 71.05Q46.003124 70.20625 45.7375 69.87813Q45.471874 69.53438 45.08125 69.53438ZM45.08125 77.8625L49.784374 68.81563L50.64375 68.81563L45.95625 77.8625L45.08125 77.8625ZM48.8 75.53438Q48.8 74.6125 49.253124 73.97188Q49.721874 73.33125 50.6125 73.33125Q51.425 73.33125 51.95625 73.90938Q52.4875 74.47188 52.4875 75.59688Q52.4875 76.69063 51.940624 77.28438Q51.409374 77.8625 50.6125 77.8625Q49.846874 77.8625 49.315624 77.28438Q48.8 76.70625 48.8 75.53438ZM50.64375 74.05Q50.2375 74.05 49.971874 74.39375Q49.721874 74.7375 49.721874 75.64375Q49.721874 76.45625 49.9875 76.8Q50.253124 77.14375 50.64375 77.14375Q51.034374 77.14375 51.3 76.8Q51.565624 76.45625 51.565624 75.55Q51.565624 74.72188 51.3 74.39375Q51.034374 74.05 50.64375 74.05Z" fill-rule="nonzero"/><path stroke="#757575" stroke-width="1.0" stroke-linecap="butt" d="M18.55 65.05L127.05 65.05L206.77579 57.18788" fill-rule="nonzero"/><path fill="#9e9e9e" d="M208.77579 57.18788C208.77579 56.083313 207.88036 55.18788 206.77579 55.18788C205.67122 55.18788 204.77579 56.083313 204.77579 57.18788C204.77579 58.29245 205.67122 59.18788 206.77579 59.18788C207.88036 59.18788 208.77579 58.29245 208.77579 57.18788" fill-rule="nonzero"/><path fill="#1a1a1a" d="M25.6125 105.98035L26.7375 106.27722Q26.378124 107.66785 25.45625 108.40222Q24.534374 109.1366 23.190624 109.1366Q21.8 109.1366 20.925 108.5741Q20.05 108.0116 19.596874 106.9491Q19.14375 105.87097 19.14375 104.6366Q19.14375 103.29285 19.659374 102.29285Q20.175 101.29285 21.1125 100.77722Q22.065624 100.2616 23.20625 100.2616Q24.4875 100.2616 25.3625 100.91785Q26.253124 101.5741 26.596874 102.7616L25.471874 103.02722Q25.175 102.08972 24.596874 101.66785Q24.034374 101.23035 23.175 101.23035Q22.190624 101.23035 21.51875 101.71472Q20.8625 102.18347 20.58125 102.98035Q20.315624 103.77722 20.315624 104.6366Q20.315624 105.73035 20.628124 106.54285Q20.95625 107.35535 21.628124 107.7616Q22.3 108.16785 23.096874 108.16785Q24.05 108.16785 24.70625 107.62097Q25.378124 107.0741 25.6125 105.98035ZM27.95625 105.8866Q27.95625 104.15222 28.909374 103.3241Q29.70625 102.6366 30.8625 102.6366Q32.14375 102.6366 32.95625 103.48035Q33.784374 104.30847 33.784374 105.79285Q33.784374 106.99597 33.425 107.68347Q33.065624 108.37097 32.3625 108.7616Q31.675 109.1366 30.8625 109.1366Q29.565624 109.1366 28.753124 108.30847Q27.95625 107.46472 27.95625 105.8866ZM29.034374 105.8866Q29.034374 107.0741 29.55 107.66785Q30.08125 108.2616 30.8625 108.2616Q31.659374 108.2616 32.175 107.66785Q32.690624 107.0741 32.690624 105.85535Q32.690624 104.6991 32.159374 104.10535Q31.64375 103.5116 30.8625 103.5116Q30.08125 103.5116 29.55 104.10535Q29.034374 104.68347 29.034374 105.8866ZM35.346874 108.99597L35.346874 102.77722L36.284374 102.77722L36.284374 103.65222Q36.58125 103.18347 37.065624 102.91785Q37.55 102.6366 38.175 102.6366Q38.8625 102.6366 39.3 102.91785Q39.753124 103.1991 39.925 103.71472Q40.675 102.6366 41.846874 102.6366Q42.784374 102.6366 43.26875 103.15222Q43.76875 103.65222 43.76875 104.73035L43.76875 108.99597L42.721874 108.99597L42.721874 105.0741Q42.721874 104.4491 42.6125 104.16785Q42.51875 103.8866 42.253124 103.71472Q41.9875 103.54285 41.6125 103.54285Q40.95625 103.54285 40.51875 103.98035Q40.096874 104.41785 40.096874 105.3866L40.096874 108.99597L39.034374 108.99597L39.034374 104.9491Q39.034374 104.24597 38.76875 103.90222Q38.51875 103.54285 37.940624 103.54285Q37.4875 103.54285 37.1125 103.77722Q36.7375 104.0116 36.565624 104.46472Q36.39375 104.91785 36.39375 105.7616L36.39375 108.99597L35.346874 108.99597ZM46.346874 108.99597L46.346874 102.77722L47.284374 102.77722L47.284374 103.65222Q47.58125 103.18347 48.065624 102.91785Q48.55 102.6366 49.175 102.6366Q49.8625 102.6366 50.3 102.91785Q50.753124 103.1991 50.925 103.71472Q51.675 102.6366 52.846874 102.6366Q53.784374 102.6366 54.26875 103.15222Q54.76875 103.65222 54.76875 104.73035L54.76875 108.99597L53.721874 108.99597L53.721874 105.0741Q53.721874 104.4491 53.6125 104.16785Q53.51875 103.8866 53.253124 103.71472Q52.9875 103.54285 52.6125 103.54285Q51.95625 103.54285 51.51875 103.98035Q51.096874 104.41785 51.096874 105.3866L51.096874 108.99597L50.034374 108.99597L50.034374 104.9491Q50.034374 104.24597 49.76875 103.90222Q49.51875 103.54285 48.940624 103.54285Q48.4875 103.54285 48.1125 103.77722Q47.7375 104.0116 47.565624 104.46472Q47.39375 104.91785 47.39375 105.7616L47.39375 108.99597L46.346874 108.99597ZM61.425 108.99597L61.425 108.0741Q60.690624 109.1366 59.440624 109.1366Q58.89375 109.1366 58.409374 108.93347Q57.940624 108.71472 57.70625 108.40222Q57.471874 108.0741 57.378124 107.60535Q57.315624 107.30847 57.315624 106.62097L57.315624 102.77722L58.378124 102.77722L58.378124 106.23035Q58.378124 107.04285 58.440624 107.33972Q58.534374 107.74597 58.846874 107.99597Q59.175 108.23035 59.659374 108.23035Q60.128124 108.23035 60.534374 107.99597Q60.95625 107.74597 61.128124 107.3241Q61.315624 106.90222 61.315624 106.10535L61.315624 102.77722L62.3625 102.77722L62.3625 108.99597L61.425 108.99597ZM64.34688 108.99597L64.34688 102.77722L65.28438 102.77722L65.28438 103.65222Q65.97188 102.6366 67.26875 102.6366Q67.83125 102.6366 68.3 102.83972Q68.78438 103.04285 69.01875 103.37097Q69.25313 103.6991 69.34688 104.1366Q69.39375 104.43347 69.39375 105.16785L69.39375 108.99597L68.34688 108.99597L68.34688 105.21472Q68.34688 104.55847 68.22188 104.24597Q68.09688 103.93347 67.78438 103.74597Q67.47188 103.54285 67.05 103.54285Q66.37813 103.54285 65.87813 103.98035Q65.39375 104.40222 65.39375 105.58972L65.39375 108.99597L64.34688 108.99597ZM71.34688 101.62097L71.34688 100.40222L72.40938 100.40222L72.40938 101.62097L71.34688 101.62097ZM71.34688 108.99597L71.34688 102.77722L72.40938 102.77722L72.40938 108.99597L71.34688 108.99597ZM76.64375 108.05847L76.8 108.98035Q76.34688 109.0741 76.00313 109.0741Q75.425 109.0741 75.1125 108.90222Q74.8 108.71472 74.65938 108.41785Q74.53438 108.12097 74.53438 107.16785L74.53438 103.58972L73.76875 103.58972L73.76875 102.77722L74.53438 102.77722L74.53438 101.23035L75.58125 100.60535L75.58125 102.77722L76.64375 102.77722L76.64375 103.58972L75.58125 103.58972L75.58125 107.23035Q75.58125 107.68347 75.62813 107.80847Q75.69063 107.93347 75.81563 108.0116Q75.94063 108.08972 76.175 108.08972Q76.3625 108.08972 76.64375 108.05847ZM77.3 111.3866L77.175 110.40222Q77.51875 110.49597 77.78438 110.49597Q78.12813 110.49597 78.33125 110.37097Q78.55 110.2616 78.69063 110.05847Q78.78438 109.8866 79.01875 109.2616Q79.03438 109.18347 79.1125 109.0116L76.7375 102.77722L77.87813 102.77722L79.175 106.37097Q79.425 107.05847 79.62813 107.8241Q79.81563 107.08972 80.06563 106.40222L81.39375 102.77722L82.44063 102.77722L80.08125 109.10535Q79.69063 110.12097 79.4875 110.5116Q79.20625 111.04285 78.83125 111.27722Q78.47188 111.52722 77.97188 111.52722Q77.675 111.52722 77.3 111.3866ZM90.25313 107.98035Q89.7375 108.55847 89.1125 108.85535Q88.50313 109.1366 87.78438 109.1366Q86.47188 109.1366 85.69063 108.24597Q85.06563 107.52722 85.06563 106.62097Q85.06563 105.8241 85.58125 105.18347Q86.09688 104.54285 87.1125 104.05847Q86.53438 103.3866 86.33125 102.98035Q86.14375 102.55847 86.14375 102.16785Q86.14375 101.40222 86.75313 100.83972Q87.3625 100.2616 88.28438 100.2616Q89.15938 100.2616 89.70625 100.80847Q90.26875 101.33972 90.26875 102.08972Q90.26875 103.3241 88.65938 104.18347L90.19063 106.15222Q90.45625 105.6366 90.59688 104.9491L91.70625 105.18347Q91.425 106.30847 90.94063 107.04285Q91.53438 107.8241 92.28438 108.35535L91.56563 109.1991Q90.925 108.77722 90.25313 107.98035ZM88.1125 103.5116Q88.8 103.10535 88.9875 102.80847Q89.19063 102.49597 89.19063 102.12097Q89.19063 101.68347 88.90938 101.40222Q88.64375 101.12097 88.22188 101.12097Q87.8 101.12097 87.50313 101.40222Q87.22188 101.68347 87.22188 102.0741Q87.22188 102.27722 87.33125 102.49597Q87.44063 102.71472 87.64375 102.96472L88.1125 103.5116ZM89.59688 107.15222L87.65938 104.74597Q86.8 105.2616 86.50313 105.6991Q86.20625 106.1366 86.20625 106.55847Q86.20625 107.08972 86.6125 107.65222Q87.03438 108.21472 87.8 108.21472Q88.26875 108.21472 88.76875 107.91785Q89.28438 107.62097 89.59688 107.15222Z" fill-rule="nonzero"/><path fill="#9e9e9e" d="M19.05 123.74597L20.159374 123.65222Q20.284374 124.46472 20.721874 124.87097Q21.175 125.27722 21.815624 125.27722Q22.565624 125.27722 23.096874 124.6991Q23.628124 124.12097 23.628124 123.18347Q23.628124 122.27722 23.1125 121.7616Q22.6125 121.23035 21.784374 121.23035Q21.284374 121.23035 20.8625 121.46472Q20.45625 121.6991 20.221874 122.05847L19.2375 121.93347L20.065624 117.52722L24.346874 117.52722L24.346874 118.52722L20.909374 118.52722L20.45625 120.83972Q21.221874 120.29285 22.065624 120.29285Q23.190624 120.29285 23.95625 121.0741Q24.7375 121.85535 24.7375 123.08972Q24.7375 124.24597 24.065624 125.10535Q23.2375 126.1366 21.815624 126.1366Q20.64375 126.1366 19.89375 125.48035Q19.159374 124.8241 19.05 123.74597ZM26.6125 125.99597L26.6125 124.79285L27.815624 124.79285L27.815624 125.99597Q27.815624 126.65222 27.58125 127.05847Q27.346874 127.48035 26.846874 127.6991L26.55 127.24597Q26.878124 127.10535 27.034374 126.80847Q27.190624 126.52722 27.221874 125.99597L26.6125 125.99597ZM29.05 121.7616Q29.05 120.23035 29.3625 119.30847Q29.675 118.37097 30.284374 117.87097Q30.909374 117.37097 31.846874 117.37097Q32.534374 117.37097 33.05 117.65222Q33.58125 117.93347 33.925 118.46472Q34.26875 118.98035 34.45625 119.73035Q34.64375 120.48035 34.64375 121.7616Q34.64375 123.27722 34.33125 124.1991Q34.034374 125.12097 33.409374 125.6366Q32.8 126.1366 31.846874 126.1366Q30.6125 126.1366 29.89375 125.24597Q29.05 124.18347 29.05 121.7616ZM30.128124 121.7616Q30.128124 123.87097 30.628124 124.5741Q31.128124 125.27722 31.846874 125.27722Q32.58125 125.27722 33.065624 124.5741Q33.565624 123.87097 33.565624 121.7616Q33.565624 119.6366 33.065624 118.9491Q32.58125 118.24597 31.83125 118.24597Q31.1125 118.24597 30.675 118.85535Q30.128124 119.6366 30.128124 121.7616ZM36.253124 119.46472Q36.253124 118.54285 36.70625 117.90222Q37.175 117.2616 38.05 117.2616Q38.8625 117.2616 39.39375 117.83972Q39.925 118.41785 39.925 119.52722Q39.925 120.62097 39.378124 121.21472Q38.846874 121.79285 38.065624 121.79285Q37.284374 121.79285 36.76875 121.21472Q36.253124 120.6366 36.253124 119.46472ZM38.08125 117.98035Q37.690624 117.98035 37.425 118.3241Q37.175 118.66785 37.175 119.5741Q37.175 120.40222 37.425 120.74597Q37.690624 121.0741 38.08125 121.0741Q38.4875 121.0741 38.7375 120.73035Q39.003124 120.3866 39.003124 119.49597Q39.003124 118.65222 38.7375 118.3241Q38.471874 117.98035 38.08125 117.98035ZM38.08125 126.30847L42.784374 117.2616L43.64375 117.2616L38.95625 126.30847L38.08125 126.30847ZM41.8 123.98035Q41.8 123.05847 42.253124 122.41785Q42.721874 121.77722 43.6125 121.77722Q44.425 121.77722 44.95625 122.35535Q45.4875 122.91785 45.4875 124.04285Q45.4875 125.1366 44.940624 125.73035Q44.409374 126.30847 43.6125 126.30847Q42.846874 126.30847 42.315624 125.73035Q41.8 125.15222 41.8 123.98035ZM43.64375 122.49597Q43.2375 122.49597 42.971874 122.83972Q42.721874 123.18347 42.721874 124.08972Q42.721874 124.90222 42.9875 125.24597Q43.253124 125.58972 43.64375 125.58972Q44.034374 125.58972 44.3 125.24597Q44.565624 124.90222 44.565624 123.99597Q44.565624 123.16785 44.3 122.83972Q44.034374 122.49597 43.64375 122.49597Z" fill-rule="nonzero"/><path stroke="#757575" stroke-width="1.0" stroke-linecap="butt" d="M18.55 113.49597L127.05 113.49597L158.68414 113.49597" fill-rule="nonzero"/><path fill="#9e9e9e" d="M160.68414 113.49597C160.68414 112.3914 159.78871 111.49597 158.68414 111.49597C157.57957 111.49597 156.68414 112.3914 156.68414 113.49597C156.68414 114.60054 157.57957 115.49597 158.68414 115.49597C159.78871 115.49597 160.68414 114.60054 160.68414 113.49597" fill-rule="nonzero"/><path fill="#1a1a1a" d="M19.503124 205.8109L19.503124 197.21715L25.70625 197.21715L25.70625 198.23277L20.64375 198.23277L20.64375 200.85777L25.39375 200.85777L25.39375 201.8734L20.64375 201.8734L20.64375 204.79527L25.909374 204.79527L25.909374 205.8109L19.503124 205.8109ZM31.409374 203.52965L32.440624 203.67027Q32.26875 204.73277 31.565624 205.34215Q30.8625 205.95152 29.846874 205.95152Q28.565624 205.95152 27.784374 205.1234Q27.01875 204.27965 27.01875 202.71715Q27.01875 201.71715 27.346874 200.96715Q27.690624 200.20152 28.3625 199.82652Q29.05 199.45152 29.8625 199.45152Q30.8625 199.45152 31.503124 199.96715Q32.159374 200.46715 32.346874 201.42027L31.315624 201.57652Q31.175 200.95152 30.8 200.63902Q30.425 200.3109 29.89375 200.3109Q29.096874 200.3109 28.596874 200.88902Q28.096874 201.45152 28.096874 202.6859Q28.096874 203.95152 28.58125 204.51402Q29.065624 205.07652 29.83125 205.07652Q30.45625 205.07652 30.8625 204.70152Q31.284374 204.32652 31.409374 203.52965ZM32.95625 202.70152Q32.95625 200.96715 33.909374 200.13902Q34.70625 199.45152 35.8625 199.45152Q37.14375 199.45152 37.95625 200.29527Q38.784374 201.1234 38.784374 202.60777Q38.784374 203.8109 38.425 204.4984Q38.065624 205.1859 37.3625 205.57652Q36.675 205.95152 35.8625 205.95152Q34.565624 205.95152 33.753124 205.1234Q32.95625 204.27965 32.95625 202.70152ZM34.034374 202.70152Q34.034374 203.88902 34.55 204.48277Q35.08125 205.07652 35.8625 205.07652Q36.659374 205.07652 37.175 204.48277Q37.690624 203.88902 37.690624 202.67027Q37.690624 201.51402 37.159374 200.92027Q36.64375 200.32652 35.8625 200.32652Q35.08125 200.32652 34.55 200.92027Q34.034374 201.4984 34.034374 202.70152ZM39.925 203.95152L40.95625 203.79527Q41.05 204.42027 41.440624 204.7484Q41.846874 205.07652 42.58125 205.07652Q43.3 205.07652 43.64375 204.79527Q44.003124 204.4984 44.003124 204.09215Q44.003124 203.73277 43.690624 203.52965Q43.471874 203.38902 42.6125 203.17027Q41.45625 202.8734 41.003124 202.67027Q40.565624 202.45152 40.33125 202.07652Q40.096874 201.70152 40.096874 201.23277Q40.096874 200.82652 40.284374 200.46715Q40.471874 200.10777 40.8 199.8734Q41.05 199.70152 41.471874 199.57652Q41.89375 199.45152 42.39375 199.45152Q43.1125 199.45152 43.659374 199.67027Q44.221874 199.8734 44.4875 200.23277Q44.753124 200.59215 44.846874 201.1859L43.815624 201.32652Q43.753124 200.85777 43.409374 200.59215Q43.08125 200.3109 42.45625 200.3109Q41.7375 200.3109 41.425 200.5609Q41.1125 200.79527 41.1125 201.1234Q41.1125 201.32652 41.2375 201.48277Q41.378124 201.65465 41.64375 201.76402Q41.8 201.82652 42.58125 202.02965Q43.70625 202.34215 44.14375 202.52965Q44.58125 202.71715 44.83125 203.07652Q45.08125 203.4359 45.08125 203.98277Q45.08125 204.51402 44.76875 204.98277Q44.471874 205.4359 43.89375 205.70152Q43.315624 205.95152 42.58125 205.95152Q41.3625 205.95152 40.721874 205.45152Q40.096874 204.9359 39.925 203.95152ZM47.3 208.20152L47.175 207.21715Q47.51875 207.3109 47.784374 207.3109Q48.128124 207.3109 48.33125 207.1859Q48.55 207.07652 48.690624 206.8734Q48.784374 206.70152 49.01875 206.07652Q49.034374 205.9984 49.1125 205.82652L46.7375 199.59215L47.878124 199.59215L49.175 203.1859Q49.425 203.8734 49.628124 204.63902Q49.815624 203.90465 50.065624 203.21715L51.39375 199.59215L52.440624 199.59215L50.08125 205.92027Q49.690624 206.9359 49.4875 207.32652Q49.20625 207.85777 48.83125 208.09215Q48.471874 208.34215 47.971874 208.34215Q47.675 208.34215 47.3 208.20152ZM51.925 203.95152L52.95625 203.79527Q53.05 204.42027 53.440624 204.7484Q53.846874 205.07652 54.58125 205.07652Q55.3 205.07652 55.64375 204.79527Q56.003124 204.4984 56.003124 204.09215Q56.003124 203.73277 55.690624 203.52965Q55.471874 203.38902 54.6125 203.17027Q53.45625 202.8734 53.003124 202.67027Q52.565624 202.45152 52.33125 202.07652Q52.096874 201.70152 52.096874 201.23277Q52.096874 200.82652 52.284374 200.46715Q52.471874 200.10777 52.8 199.8734Q53.05 199.70152 53.471874 199.57652Q53.89375 199.45152 54.39375 199.45152Q55.1125 199.45152 55.659374 199.67027Q56.221874 199.8734 56.4875 200.23277Q56.753124 200.59215 56.846874 201.1859L55.815624 201.32652Q55.753124 200.85777 55.409374 200.59215Q55.08125 200.3109 54.45625 200.3109Q53.7375 200.3109 53.425 200.5609Q53.1125 200.79527 53.1125 201.1234Q53.1125 201.32652 53.2375 201.48277Q53.378124 201.65465 53.64375 201.76402Q53.8 201.82652 54.58125 202.02965Q55.70625 202.34215 56.14375 202.52965Q56.58125 202.71715 56.83125 203.07652Q57.08125 203.4359 57.08125 203.98277Q57.08125 204.51402 56.76875 204.98277Q56.471874 205.4359 55.89375 205.70152Q55.315624 205.95152 54.58125 205.95152Q53.3625 205.95152 52.721874 205.45152Q52.096874 204.9359 51.925 203.95152ZM61.64375 204.8734L61.8 205.79527Q61.346874 205.88902 61.003124 205.88902Q60.425 205.88902 60.1125 205.71715Q59.8 205.52965 59.659374 205.23277Q59.534374 204.9359 59.534374 203.98277L59.534374 200.40465L58.76875 200.40465L58.76875 199.59215L59.534374 199.59215L59.534374 198.04527L60.58125 197.42027L60.58125 199.59215L61.64375 199.59215L61.64375 200.40465L60.58125 200.40465L60.58125 204.04527Q60.58125 204.4984 60.628124 204.6234Q60.690624 204.7484 60.815624 204.82652Q60.940624 204.90465 61.175 204.90465Q61.3625 204.90465 61.64375 204.8734ZM66.59688 203.8109L67.69063 203.9359Q67.44063 204.88902 66.7375 205.42027Q66.03438 205.95152 64.95625 205.95152Q63.596874 205.95152 62.784374 205.10777Q61.9875 204.26402 61.9875 202.7484Q61.9875 201.1859 62.8 200.32652Q63.6125 199.45152 64.89375 199.45152Q66.14375 199.45152 66.925 200.29527Q67.72188 201.13902 67.72188 202.6859Q67.72188 202.77965 67.72188 202.96715L63.08125 202.96715Q63.14375 203.9984 63.659374 204.54527Q64.175 205.07652 64.95625 205.07652Q65.53438 205.07652 65.94063 204.77965Q66.3625 204.46715 66.59688 203.8109ZM63.14375 202.10777L66.6125 202.10777Q66.55 201.3109 66.22188 200.92027Q65.70625 200.3109 64.90938 200.3109Q64.175 200.3109 63.675 200.79527Q63.190624 201.27965 63.14375 202.10777ZM69.34688 205.8109L69.34688 199.59215L70.28438 199.59215L70.28438 200.46715Q70.58125 199.9984 71.06563 199.73277Q71.55 199.45152 72.175 199.45152Q72.8625 199.45152 73.3 199.73277Q73.75313 200.01402 73.925 200.52965Q74.675 199.45152 75.84688 199.45152Q76.78438 199.45152 77.26875 199.96715Q77.76875 200.46715 77.76875 201.54527L77.76875 205.8109L76.72188 205.8109L76.72188 201.88902Q76.72188 201.26402 76.6125 200.98277Q76.51875 200.70152 76.25313 200.52965Q75.9875 200.35777 75.6125 200.35777Q74.95625 200.35777 74.51875 200.79527Q74.09688 201.23277 74.09688 202.20152L74.09688 205.8109L73.03438 205.8109L73.03438 201.76402Q73.03438 201.0609 72.76875 200.71715Q72.51875 200.35777 71.94063 200.35777Q71.4875 200.35777 71.1125 200.59215Q70.7375 200.82652 70.56563 201.27965Q70.39375 201.73277 70.39375 202.57652L70.39375 205.8109L69.34688 205.8109Z" fill-rule="nonzero"/><path fill="#9e9e9e" d="M23.01875 222.8109L21.971874 222.8109L21.971874 216.09215Q21.58125 216.45152 20.95625 216.82652Q20.346874 217.1859 19.8625 217.35777L19.8625 216.34215Q20.7375 215.92027 21.39375 215.34215Q22.065624 214.7484 22.346874 214.1859L23.01875 214.1859L23.01875 222.8109ZM26.05 220.5609L27.159374 220.46715Q27.284374 221.27965 27.721874 221.6859Q28.175 222.09215 28.815624 222.09215Q29.565624 222.09215 30.096874 221.51402Q30.628124 220.9359 30.628124 219.9984Q30.628124 219.09215 30.1125 218.57652Q29.6125 218.04527 28.784374 218.04527Q28.284374 218.04527 27.8625 218.27965Q27.45625 218.51402 27.221874 218.8734L26.2375 218.7484L27.065624 214.34215L31.346874 214.34215L31.346874 215.34215L27.909374 215.34215L27.45625 217.65465Q28.221874 217.10777 29.065624 217.10777Q30.190624 217.10777 30.95625 217.88902Q31.7375 218.67027 31.7375 219.90465Q31.7375 221.0609 31.065624 221.92027Q30.2375 222.95152 28.815624 222.95152Q27.64375 222.95152 26.89375 222.29527Q26.159374 221.63902 26.05 220.5609ZM33.6125 222.8109L33.6125 221.60777L34.815624 221.60777L34.815624 222.8109Q34.815624 223.46715 34.58125 223.8734Q34.346874 224.29527 33.846874 224.51402L33.55 224.0609Q33.878124 223.92027 34.034374 223.6234Q34.190624 223.34215 34.221874 222.8109L33.6125 222.8109ZM36.05 218.57652Q36.05 217.04527 36.3625 216.1234Q36.675 215.1859 37.284374 214.6859Q37.909374 214.1859 38.846874 214.1859Q39.534374 214.1859 40.05 214.46715Q40.58125 214.7484 40.925 215.27965Q41.26875 215.79527 41.45625 216.54527Q41.64375 217.29527 41.64375 218.57652Q41.64375 220.09215 41.33125 221.01402Q41.034374 221.9359 40.409374 222.45152Q39.8 222.95152 38.846874 222.95152Q37.6125 222.95152 36.89375 222.0609Q36.05 220.9984 36.05 218.57652ZM37.128124 218.57652Q37.128124 220.6859 37.628124 221.38902Q38.128124 222.09215 38.846874 222.09215Q39.58125 222.09215 40.065624 221.38902Q40.565624 220.6859 40.565624 218.57652Q40.565624 216.45152 40.065624 215.76402Q39.58125 215.0609 38.83125 215.0609Q38.1125 215.0609 37.675 215.67027Q37.128124 216.45152 37.128124 218.57652ZM43.253124 216.27965Q43.253124 215.35777 43.70625 214.71715Q44.175 214.07652 45.05 214.07652Q45.8625 214.07652 46.39375 214.65465Q46.925 215.23277 46.925 216.34215Q46.925 217.4359 46.378124 218.02965Q45.846874 218.60777 45.065624 218.60777Q44.284374 218.60777 43.76875 218.02965Q43.253124 217.45152 43.253124 216.27965ZM45.08125 214.79527Q44.690624 214.79527 44.425 215.13902Q44.175 215.48277 44.175 216.38902Q44.175 217.21715 44.425 217.5609Q44.690624 217.88902 45.08125 217.88902Q45.4875 217.88902 45.7375 217.54527Q46.003124 217.20152 46.003124 216.3109Q46.003124 215.46715 45.7375 215.13902Q45.471874 214.79527 45.08125 214.79527ZM45.08125 223.1234L49.784374 214.07652L50.64375 214.07652L45.95625 223.1234L45.08125 223.1234ZM48.8 220.79527Q48.8 219.8734 49.253124 219.23277Q49.721874 218.59215 50.6125 218.59215Q51.425 218.59215 51.95625 219.17027Q52.4875 219.73277 52.4875 220.85777Q52.4875 221.95152 51.940624 222.54527Q51.409374 223.1234 50.6125 223.1234Q49.846874 223.1234 49.315624 222.54527Q48.8 221.96715 48.8 220.79527ZM50.64375 219.3109Q50.2375 219.3109 49.971874 219.65465Q49.721874 219.9984 49.721874 220.90465Q49.721874 221.71715 49.9875 222.0609Q50.253124 222.40465 50.64375 222.40465Q51.034374 222.40465 51.3 222.0609Q51.565624 221.71715 51.565624 220.8109Q51.565624 219.98277 51.3 219.65465Q51.034374 219.3109 50.64375 219.3109Z" fill-rule="nonzero"/><path stroke="#757575" stroke-width="1.0" stroke-linecap="butt" d="M18.55 210.3109L127.05 210.3109L143.35016 210.3109" fill-rule="nonzero"/><path fill="#9e9e9e" d="M145.35016 210.3109C145.35016 209.20633 144.45473 208.3109 143.35016 208.3109C142.24559 208.3109 141.35016 209.20633 141.35016 210.3109C141.35016 211.41547 142.24559 212.3109 143.35016 212.3109C144.45473 212.3109 145.35016 211.41547 145.35016 210.3109" fill-rule="nonzero"/><path fill="#1a1a1a" d="M522.5594 52.68788L522.5594 45.109756L519.73126 45.109756L519.73126 44.09413L526.54376 44.09413L526.54376 45.109756L523.7 45.109756L523.7 52.68788L522.5594 52.68788ZM526.85626 49.578506Q526.85626 47.84413 527.8094 47.016006Q528.60626 46.328506 529.7625 46.328506Q531.04376 46.328506 531.85626 47.172256Q532.6844 48.00038 532.6844 49.484756Q532.6844 50.68788 532.325 51.37538Q531.96564 52.06288 531.2625 52.453506Q530.575 52.828506 529.7625 52.828506Q528.46564 52.828506 527.65314 52.00038Q526.85626 51.15663 526.85626 49.578506ZM527.9344 49.578506Q527.9344 50.766006 528.45 51.359756Q528.98126 51.953506 529.7625 51.953506Q530.5594 51.953506 531.075 51.359756Q531.59064 50.766006 531.59064 49.547256Q531.59064 48.391006 531.0594 47.797256Q530.54376 47.203506 529.7625 47.203506Q528.98126 47.203506 528.45 47.797256Q527.9344 48.37538 527.9344 49.578506ZM534.2469 52.68788L534.2469 44.09413L535.3094 44.09413L535.3094 49.00038L537.79376 46.46913L539.16876 46.46913L536.77814 48.766006L539.40314 52.68788L538.10626 52.68788L536.04376 49.50038L535.3094 50.21913L535.3094 52.68788L534.2469 52.68788ZM544.4969 50.68788L545.59064 50.81288Q545.34064 51.766006 544.6375 52.297256Q543.9344 52.828506 542.85626 52.828506Q541.4969 52.828506 540.6844 51.984756Q539.8875 51.141006 539.8875 49.62538Q539.8875 48.06288 540.7 47.203506Q541.5125 46.328506 542.79376 46.328506Q544.04376 46.328506 544.825 47.172256Q545.6219 48.016006 545.6219 49.56288Q545.6219 49.65663 545.6219 49.84413L540.98126 49.84413Q541.04376 50.87538 541.5594 51.422256Q542.075 51.953506 542.85626 51.953506Q543.4344 51.953506 543.84064 51.65663Q544.2625 51.34413 544.4969 50.68788ZM541.04376 48.984756L544.5125 48.984756Q544.45 48.18788 544.1219 47.797256Q543.60626 47.18788 542.8094 47.18788Q542.075 47.18788 541.575 47.672256Q541.09064 48.15663 541.04376 48.984756ZM547.2469 52.68788L547.2469 46.46913L548.1844 46.46913L548.1844 47.34413Q548.8719 46.328506 550.16876 46.328506Q550.73126 46.328506 551.2 46.53163Q551.6844 46.734756 551.91876 47.06288Q552.15314 47.391006 552.2469 47.828506Q552.29376 48.12538 552.29376 48.859756L552.29376 52.68788L551.2469 52.68788L551.2469 48.90663Q551.2469 48.25038 551.1219 47.93788Q550.9969 47.62538 550.6844 47.43788Q550.3719 47.234756 549.95 47.234756Q549.27814 47.234756 548.77814 47.672256Q548.29376 48.09413 548.29376 49.28163L548.29376 52.68788L547.2469 52.68788ZM556.9969 49.922256L558.0594 49.828506Q558.1375 50.484756 558.41876 50.891006Q558.7 51.297256 559.27814 51.56288Q559.8719 51.81288 560.60626 51.81288Q561.2469 51.81288 561.7469 51.62538Q562.2469 51.422256 562.48126 51.09413Q562.73126 50.75038 562.73126 50.359756Q562.73126 49.953506 562.4969 49.65663Q562.2625 49.34413 561.73126 49.141006Q561.3719 49.00038 560.1844 48.71913Q559.0125 48.43788 558.54376 48.18788Q557.91876 47.859756 557.6219 47.391006Q557.325 46.90663 557.325 46.31288Q557.325 45.672256 557.6844 45.109756Q558.0594 44.53163 558.7625 44.25038Q559.48126 43.953506 560.34064 43.953506Q561.29376 43.953506 562.02814 44.266006Q562.7625 44.56288 563.15314 45.172256Q563.54376 45.766006 563.575 46.516006L562.48126 46.59413Q562.3875 45.78163 561.8719 45.37538Q561.3719 44.953506 560.3875 44.953506Q559.35626 44.953506 558.8875 45.328506Q558.41876 45.703506 558.41876 46.234756Q558.41876 46.703506 558.7469 47.00038Q559.075 47.297256 560.45 47.609756Q561.84064 47.922256 562.35626 48.15663Q563.10626 48.516006 563.46564 49.047256Q563.825 49.56288 563.825 50.266006Q563.825 50.953506 563.4344 51.56288Q563.04376 52.15663 562.3094 52.50038Q561.575 52.828506 560.65314 52.828506Q559.48126 52.828506 558.6844 52.50038Q557.90314 52.15663 557.45 51.46913Q557.0125 50.78163 556.9969 49.922256ZM569.3094 51.922256Q568.71564 52.422256 568.16876 52.62538Q567.6375 52.828506 567.0125 52.828506Q565.98126 52.828506 565.4344 52.328506Q564.8875 51.828506 564.8875 51.047256Q564.8875 50.59413 565.09064 50.21913Q565.29376 49.828506 565.6375 49.609756Q565.98126 49.37538 566.40314 49.266006Q566.7 49.172256 567.34064 49.09413Q568.60626 48.953506 569.21564 48.734756Q569.21564 48.516006 569.21564 48.46913Q569.21564 47.81288 568.91876 47.547256Q568.5125 47.203506 567.71564 47.203506Q566.98126 47.203506 566.6219 47.46913Q566.2625 47.71913 566.09064 48.37538L565.0594 48.234756Q565.2 47.578506 565.52814 47.172256Q565.85626 46.766006 566.46564 46.547256Q567.075 46.328506 567.8719 46.328506Q568.66876 46.328506 569.16876 46.516006Q569.66876 46.703506 569.90314 46.984756Q570.1375 47.266006 570.23126 47.703506Q570.27814 47.96913 570.27814 48.672256L570.27814 50.078506Q570.27814 51.547256 570.34064 51.93788Q570.41876 52.328506 570.6219 52.68788L569.5125 52.68788Q569.35626 52.359756 569.3094 51.922256ZM569.21564 49.56288Q568.6375 49.797256 567.4969 49.96913Q566.84064 50.06288 566.575 50.18788Q566.3094 50.297256 566.15314 50.516006Q566.0125 50.734756 566.0125 51.016006Q566.0125 51.43788 566.325 51.71913Q566.65314 52.00038 567.2625 52.00038Q567.8719 52.00038 568.34064 51.734756Q568.825 51.46913 569.04376 51.00038Q569.21564 50.641006 569.21564 49.953506L569.21564 49.56288ZM572.21564 52.68788L572.21564 44.09413L573.27814 44.09413L573.27814 52.68788L572.21564 52.68788ZM579.4969 50.68788L580.59064 50.81288Q580.34064 51.766006 579.6375 52.297256Q578.9344 52.828506 577.85626 52.828506Q576.4969 52.828506 575.6844 51.984756Q574.8875 51.141006 574.8875 49.62538Q574.8875 48.06288 575.7 47.203506Q576.5125 46.328506 577.79376 46.328506Q579.04376 46.328506 579.825 47.172256Q580.6219 48.016006 580.6219 49.56288Q580.6219 49.65663 580.6219 49.84413L575.98126 49.84413Q576.04376 50.87538 576.5594 51.422256Q577.075 51.953506 577.85626 51.953506Q578.4344 51.953506 578.84064 51.65663Q579.2625 51.34413 579.4969 50.68788ZM576.04376 48.984756L579.5125 48.984756Q579.45 48.18788 579.1219 47.797256Q578.60626 47.18788 577.8094 47.18788Q577.075 47.18788 576.575 47.672256Q576.09064 48.15663 576.04376 48.984756Z" fill-rule="nonzero"/><path fill="#9e9e9e" d="M552.4969 68.67226L552.4969 69.68788L546.8094 69.68788Q546.8094 69.31288 546.9344 68.95351Q547.15314 68.37538 547.6219 67.81288Q548.10626 67.25038 549.0125 66.51601Q550.41876 65.35976 550.90314 64.68788Q551.40314 64.01601 551.40314 63.422256Q551.40314 62.797256 550.95 62.37538Q550.4969 61.93788 549.77814 61.93788Q549.0125 61.93788 548.5594 62.391006Q548.10626 62.84413 548.09064 63.65663L547.0125 63.547256Q547.1219 62.328506 547.84064 61.703506Q548.575 61.06288 549.8094 61.06288Q551.04376 61.06288 551.7625 61.75038Q552.48126 62.43788 552.48126 63.453506Q552.48126 63.96913 552.2625 64.46913Q552.0594 64.95351 551.5594 65.51601Q551.075 66.06288 549.95 67.01601Q548.9969 67.81288 548.71564 68.10976Q548.45 68.39101 548.27814 68.67226L552.4969 68.67226ZM553.95 65.45351Q553.95 63.922256 554.2625 63.00038Q554.575 62.06288 555.1844 61.56288Q555.8094 61.06288 556.7469 61.06288Q557.4344 61.06288 557.95 61.34413Q558.48126 61.62538 558.825 62.15663Q559.16876 62.672256 559.35626 63.422256Q559.54376 64.17226 559.54376 65.45351Q559.54376 66.96913 559.23126 67.89101Q558.9344 68.81288 558.3094 69.32851Q557.7 69.82851 556.7469 69.82851Q555.5125 69.82851 554.79376 68.93788Q553.95 67.87538 553.95 65.45351ZM555.02814 65.45351Q555.02814 67.56288 555.52814 68.26601Q556.02814 68.96913 556.7469 68.96913Q557.48126 68.96913 557.96564 68.26601Q558.46564 67.56288 558.46564 65.45351Q558.46564 63.328506 557.96564 62.641006Q557.48126 61.93788 556.73126 61.93788Q556.0125 61.93788 555.575 62.547256Q555.02814 63.328506 555.02814 65.45351ZM561.5125 69.68788L561.5125 68.48476L562.71564 68.48476L562.71564 69.68788Q562.71564 70.34413 562.48126 70.75038Q562.2469 71.17226 561.7469 71.39101L561.45 70.93788Q561.77814 70.79726 561.9344 70.50038Q562.09064 70.21913 562.1219 69.68788L561.5125 69.68788ZM563.95 65.45351Q563.95 63.922256 564.2625 63.00038Q564.575 62.06288 565.1844 61.56288Q565.8094 61.06288 566.7469 61.06288Q567.4344 61.06288 567.95 61.34413Q568.48126 61.62538 568.825 62.15663Q569.16876 62.672256 569.35626 63.422256Q569.54376 64.17226 569.54376 65.45351Q569.54376 66.96913 569.23126 67.89101Q568.9344 68.81288 568.3094 69.32851Q567.7 69.82851 566.7469 69.82851Q565.5125 69.82851 564.79376 68.93788Q563.95 67.87538 563.95 65.45351ZM565.02814 65.45351Q565.02814 67.56288 565.52814 68.26601Q566.02814 68.96913 566.7469 68.96913Q567.48126 68.96913 567.96564 68.26601Q568.46564 67.56288 568.46564 65.45351Q568.46564 63.328506 567.96564 62.641006Q567.48126 61.93788 566.73126 61.93788Q566.0125 61.93788 565.575 62.547256Q565.02814 63.328506 565.02814 65.45351ZM571.15314 63.15663Q571.15314 62.234756 571.60626 61.59413Q572.075 60.953506 572.95 60.953506Q573.7625 60.953506 574.29376 61.53163Q574.825 62.109756 574.825 63.21913Q574.825 64.31288 574.27814 64.90663Q573.7469 65.48476 572.96564 65.48476Q572.1844 65.48476 571.66876 64.90663Q571.15314 64.32851 571.15314 63.15663ZM572.98126 61.672256Q572.59064 61.672256 572.325 62.016006Q572.075 62.359756 572.075 63.266006Q572.075 64.09413 572.325 64.43788Q572.59064 64.76601 572.98126 64.76601Q573.3875 64.76601 573.6375 64.42226Q573.90314 64.07851 573.90314 63.18788Q573.90314 62.34413 573.6375 62.016006Q573.3719 61.672256 572.98126 61.672256ZM572.98126 70.00038L577.6844 60.953506L578.54376 60.953506L573.85626 70.00038L572.98126 70.00038ZM576.7 67.67226Q576.7 66.75038 577.15314 66.10976Q577.6219 65.46913 578.5125 65.46913Q579.325 65.46913 579.85626 66.04726Q580.3875 66.60976 580.3875 67.73476Q580.3875 68.82851 579.84064 69.42226Q579.3094 70.00038 578.5125 70.00038Q577.7469 70.00038 577.21564 69.42226Q576.7 68.84413 576.7 67.67226ZM578.54376 66.18788Q578.1375 66.18788 577.8719 66.53163Q577.6219 66.87538 577.6219 67.78163Q577.6219 68.59413 577.8875 68.93788Q578.15314 69.28163 578.54376 69.28163Q578.9344 69.28163 579.2 68.93788Q579.46564 68.59413 579.46564 67.68788Q579.46564 66.85976 579.2 66.53163Q578.9344 66.18788 578.54376 66.18788Z" fill-rule="nonzero"/><path stroke="#757575" stroke-width="1.0" stroke-linecap="butt" d="M581.45 57.18788L472.95 57.18788L393.2242 57.18788" fill-rule="nonzero"/><path fill="#9e9e9e" d="M395.2242 57.18788C395.2242 56.083313 394.32877 55.18788 393.2242 55.18788C392.11963 55.18788 391.2242 56.083313 391.2242 57.18788C391.2242 58.29245 392.11963 59.18788 393.2242 59.18788C394.32877 59.18788 395.2242 58.29245 395.2242 57.18788" fill-rule="nonzero"/><path fill="#1a1a1a" d="M485.5594 205.8109L485.5594 198.23277L482.73126 198.23277L482.73126 197.21715L489.54376 197.21715L489.54376 198.23277L486.7 198.23277L486.7 205.8109L485.5594 205.8109ZM494.4969 203.8109L495.59064 203.9359Q495.34064 204.88902 494.6375 205.42027Q493.9344 205.95152 492.85626 205.95152Q491.4969 205.95152 490.6844 205.10777Q489.8875 204.26402 489.8875 202.7484Q489.8875 201.1859 490.7 200.32652Q491.5125 199.45152 492.79376 199.45152Q494.04376 199.45152 494.825 200.29527Q495.6219 201.13902 495.6219 202.6859Q495.6219 202.77965 495.6219 202.96715L490.98126 202.96715Q491.04376 203.9984 491.5594 204.54527Q492.075 205.07652 492.85626 205.07652Q493.4344 205.07652 493.84064 204.77965Q494.2625 204.46715 494.4969 203.8109ZM491.04376 202.10777L494.5125 202.10777Q494.45 201.3109 494.1219 200.92027Q493.60626 200.3109 492.8094 200.3109Q492.075 200.3109 491.575 200.79527Q491.09064 201.27965 491.04376 202.10777ZM501.3094 205.04527Q500.71564 205.54527 500.16876 205.7484Q499.6375 205.95152 499.0125 205.95152Q497.98126 205.95152 497.4344 205.45152Q496.8875 204.95152 496.8875 204.17027Q496.8875 203.71715 497.09064 203.34215Q497.29376 202.95152 497.6375 202.73277Q497.98126 202.4984 498.40314 202.38902Q498.7 202.29527 499.34064 202.21715Q500.60626 202.07652 501.21564 201.85777Q501.21564 201.63902 501.21564 201.59215Q501.21564 200.9359 500.91876 200.67027Q500.5125 200.32652 499.71564 200.32652Q498.98126 200.32652 498.6219 200.59215Q498.2625 200.84215 498.09064 201.4984L497.0594 201.35777Q497.2 200.70152 497.52814 200.29527Q497.85626 199.88902 498.46564 199.67027Q499.075 199.45152 499.8719 199.45152Q500.66876 199.45152 501.16876 199.63902Q501.66876 199.82652 501.90314 200.10777Q502.1375 200.38902 502.23126 200.82652Q502.27814 201.09215 502.27814 201.79527L502.27814 203.20152Q502.27814 204.67027 502.34064 205.0609Q502.41876 205.45152 502.6219 205.8109L501.5125 205.8109Q501.35626 205.48277 501.3094 205.04527ZM501.21564 202.6859Q500.6375 202.92027 499.4969 203.09215Q498.84064 203.1859 498.575 203.3109Q498.3094 203.42027 498.15314 203.63902Q498.0125 203.85777 498.0125 204.13902Q498.0125 204.5609 498.325 204.84215Q498.65314 205.1234 499.2625 205.1234Q499.8719 205.1234 500.34064 204.85777Q500.825 204.59215 501.04376 204.1234Q501.21564 203.76402 501.21564 203.07652L501.21564 202.6859ZM504.2469 205.8109L504.2469 199.59215L505.1844 199.59215L505.1844 200.46715Q505.48126 199.9984 505.96564 199.73277Q506.45 199.45152 507.075 199.45152Q507.7625 199.45152 508.2 199.73277Q508.65314 200.01402 508.825 200.52965Q509.575 199.45152 510.7469 199.45152Q511.6844 199.45152 512.16876 199.96715Q512.66876 200.46715 512.66876 201.54527L512.66876 205.8109L511.6219 205.8109L511.6219 201.88902Q511.6219 201.26402 511.5125 200.98277Q511.41876 200.70152 511.15314 200.52965Q510.8875 200.35777 510.5125 200.35777Q509.85626 200.35777 509.41876 200.79527Q508.9969 201.23277 508.9969 202.20152L508.9969 205.8109L507.9344 205.8109L507.9344 201.76402Q507.9344 201.0609 507.66876 200.71715Q507.41876 200.35777 506.84064 200.35777Q506.3875 200.35777 506.0125 200.59215Q505.6375 200.82652 505.46564 201.27965Q505.29376 201.73277 505.29376 202.57652L505.29376 205.8109L504.2469 205.8109ZM522.3094 205.04527Q521.71564 205.54527 521.16876 205.7484Q520.6375 205.95152 520.0125 205.95152Q518.98126 205.95152 518.4344 205.45152Q517.8875 204.95152 517.8875 204.17027Q517.8875 203.71715 518.09064 203.34215Q518.29376 202.95152 518.6375 202.73277Q518.98126 202.4984 519.40314 202.38902Q519.7 202.29527 520.34064 202.21715Q521.60626 202.07652 522.21564 201.85777Q522.21564 201.63902 522.21564 201.59215Q522.21564 200.9359 521.91876 200.67027Q521.5125 200.32652 520.71564 200.32652Q519.98126 200.32652 519.6219 200.59215Q519.2625 200.84215 519.09064 201.4984L518.0594 201.35777Q518.2 200.70152 518.52814 200.29527Q518.85626 199.88902 519.46564 199.67027Q520.075 199.45152 520.8719 199.45152Q521.66876 199.45152 522.16876 199.63902Q522.66876 199.82652 522.90314 200.10777Q523.1375 200.38902 523.23126 200.82652Q523.27814 201.09215 523.27814 201.79527L523.27814 203.20152Q523.27814 204.67027 523.34064 205.0609Q523.41876 205.45152 523.6219 205.8109L522.5125 205.8109Q522.35626 205.48277 522.3094 205.04527ZM522.21564 202.6859Q521.6375 202.92027 520.4969 203.09215Q519.84064 203.1859 519.575 203.3109Q519.3094 203.42027 519.15314 203.63902Q519.0125 203.85777 519.0125 204.13902Q519.0125 204.5609 519.325 204.84215Q519.65314 205.1234 520.2625 205.1234Q520.8719 205.1234 521.34064 204.85777Q521.825 204.59215 522.04376 204.1234Q522.21564 203.76402 522.21564 203.07652L522.21564 202.6859ZM525.2469 205.8109L525.2469 199.59215L526.1844 199.59215L526.1844 200.46715Q526.8719 199.45152 528.16876 199.45152Q528.73126 199.45152 529.2 199.65465Q529.6844 199.85777 529.91876 200.1859Q530.15314 200.51402 530.2469 200.95152Q530.29376 201.2484 530.29376 201.98277L530.29376 205.8109L529.2469 205.8109L529.2469 202.02965Q529.2469 201.3734 529.1219 201.0609Q528.9969 200.7484 528.6844 200.5609Q528.3719 200.35777 527.95 200.35777Q527.27814 200.35777 526.77814 200.79527Q526.29376 201.21715 526.29376 202.40465L526.29376 205.8109L525.2469 205.8109ZM536.27814 205.8109L536.27814 205.02965Q535.6844 205.95152 534.54376 205.95152Q533.79376 205.95152 533.16876 205.54527Q532.54376 205.1234 532.2 204.38902Q531.85626 203.65465 531.85626 202.70152Q531.85626 201.77965 532.16876 201.01402Q532.48126 200.2484 533.10626 199.85777Q533.73126 199.45152 534.4969 199.45152Q535.0594 199.45152 535.4969 199.6859Q535.9344 199.92027 536.21564 200.29527L536.21564 197.21715L537.2625 197.21715L537.2625 205.8109L536.27814 205.8109ZM532.95 202.70152Q532.95 203.90465 533.45 204.4984Q533.95 205.07652 534.6375 205.07652Q535.325 205.07652 535.8094 204.51402Q536.29376 203.95152 536.29376 202.79527Q536.29376 201.51402 535.79376 200.92027Q535.3094 200.32652 534.59064 200.32652Q533.8875 200.32652 533.41876 200.90465Q532.95 201.46715 532.95 202.70152ZM546.3094 205.04527Q545.71564 205.54527 545.16876 205.7484Q544.6375 205.95152 544.0125 205.95152Q542.98126 205.95152 542.4344 205.45152Q541.8875 204.95152 541.8875 204.17027Q541.8875 203.71715 542.09064 203.34215Q542.29376 202.95152 542.6375 202.73277Q542.98126 202.4984 543.40314 202.38902Q543.7 202.29527 544.34064 202.21715Q545.60626 202.07652 546.21564 201.85777Q546.21564 201.63902 546.21564 201.59215Q546.21564 200.9359 545.91876 200.67027Q545.5125 200.32652 544.71564 200.32652Q543.98126 200.32652 543.6219 200.59215Q543.2625 200.84215 543.09064 201.4984L542.0594 201.35777Q542.2 200.70152 542.52814 200.29527Q542.85626 199.88902 543.46564 199.67027Q544.075 199.45152 544.8719 199.45152Q545.66876 199.45152 546.16876 199.63902Q546.66876 199.82652 546.90314 200.10777Q547.1375 200.38902 547.23126 200.82652Q547.27814 201.09215 547.27814 201.79527L547.27814 203.20152Q547.27814 204.67027 547.34064 205.0609Q547.41876 205.45152 547.6219 205.8109L546.5125 205.8109Q546.35626 205.48277 546.3094 205.04527ZM546.21564 202.6859Q545.6375 202.92027 544.4969 203.09215Q543.84064 203.1859 543.575 203.3109Q543.3094 203.42027 543.15314 203.63902Q543.0125 203.85777 543.0125 204.13902Q543.0125 204.5609 543.325 204.84215Q543.65314 205.1234 544.2625 205.1234Q544.8719 205.1234 545.34064 204.85777Q545.825 204.59215 546.04376 204.1234Q546.21564 203.76402 546.21564 203.07652L546.21564 202.6859ZM553.27814 205.8109L553.27814 205.02965Q552.6844 205.95152 551.54376 205.95152Q550.79376 205.95152 550.16876 205.54527Q549.54376 205.1234 549.2 204.38902Q548.85626 203.65465 548.85626 202.70152Q548.85626 201.77965 549.16876 201.01402Q549.48126 200.2484 550.10626 199.85777Q550.73126 199.45152 551.4969 199.45152Q552.0594 199.45152 552.4969 199.6859Q552.9344 199.92027 553.21564 200.29527L553.21564 197.21715L554.2625 197.21715L554.2625 205.8109L553.27814 205.8109ZM549.95 202.70152Q549.95 203.90465 550.45 204.4984Q550.95 205.07652 551.6375 205.07652Q552.325 205.07652 552.8094 204.51402Q553.29376 203.95152 553.29376 202.79527Q553.29376 201.51402 552.79376 200.92027Q552.3094 200.32652 551.59064 200.32652Q550.8875 200.32652 550.41876 200.90465Q549.95 201.46715 549.95 202.70152ZM557.96564 205.8109L555.60626 199.59215L556.71564 199.59215L558.0594 203.3109Q558.2625 203.92027 558.45 204.5609Q558.59064 204.07652 558.84064 203.38902L560.23126 199.59215L561.3094 199.59215L558.95 205.8109L557.96564 205.8109ZM561.2469 198.4359L561.2469 197.21715L562.3094 197.21715L562.3094 198.4359L561.2469 198.4359ZM561.2469 205.8109L561.2469 199.59215L562.3094 199.59215L562.3094 205.8109L561.2469 205.8109ZM563.825 203.95152L564.85626 203.79527Q564.95 204.42027 565.34064 204.7484Q565.7469 205.07652 566.48126 205.07652Q567.2 205.07652 567.54376 204.79527Q567.90314 204.4984 567.90314 204.09215Q567.90314 203.73277 567.59064 203.52965Q567.3719 203.38902 566.5125 203.17027Q565.35626 202.8734 564.90314 202.67027Q564.46564 202.45152 564.23126 202.07652Q563.9969 201.70152 563.9969 201.23277Q563.9969 200.82652 564.1844 200.46715Q564.3719 200.10777 564.7 199.8734Q564.95 199.70152 565.3719 199.57652Q565.79376 199.45152 566.29376 199.45152Q567.0125 199.45152 567.5594 199.67027Q568.1219 199.8734 568.3875 200.23277Q568.65314 200.59215 568.7469 201.1859L567.71564 201.32652Q567.65314 200.85777 567.3094 200.59215Q566.98126 200.3109 566.35626 200.3109Q565.6375 200.3109 565.325 200.5609Q565.0125 200.79527 565.0125 201.1234Q565.0125 201.32652 565.1375 201.48277Q565.27814 201.65465 565.54376 201.76402Q565.7 201.82652 566.48126 202.02965Q567.60626 202.34215 568.04376 202.52965Q568.48126 202.71715 568.73126 203.07652Q568.98126 203.4359 568.98126 203.98277Q568.98126 204.51402 568.66876 204.98277Q568.3719 205.4359 567.79376 205.70152Q567.21564 205.95152 566.48126 205.95152Q565.2625 205.95152 564.6219 205.45152Q563.9969 204.9359 563.825 203.95152ZM570.85626 202.70152Q570.85626 200.96715 571.8094 200.13902Q572.60626 199.45152 573.7625 199.45152Q575.04376 199.45152 575.85626 200.29527Q576.6844 201.1234 576.6844 202.60777Q576.6844 203.8109 576.325 204.4984Q575.96564 205.1859 575.2625 205.57652Q574.575 205.95152 573.7625 205.95152Q572.46564 205.95152 571.65314 205.1234Q570.85626 204.27965 570.85626 202.70152ZM571.9344 202.70152Q571.9344 203.88902 572.45 204.48277Q572.98126 205.07652 573.7625 205.07652Q574.5594 205.07652 575.075 204.48277Q575.59064 203.88902 575.59064 202.67027Q575.59064 201.51402 575.0594 200.92027Q574.54376 200.32652 573.7625 200.32652Q572.98126 200.32652 572.45 200.92027Q571.9344 201.4984 571.9344 202.70152ZM578.23126 205.8109L578.23126 199.59215L579.1844 199.59215L579.1844 200.52965Q579.54376 199.8734 579.84064 199.67027Q580.15314 199.45152 580.52814 199.45152Q581.0594 199.45152 581.60626 199.77965L581.2469 200.76402Q580.85626 200.52965 580.48126 200.52965Q580.1219 200.52965 579.84064 200.7484Q579.575 200.95152 579.46564 201.32652Q579.27814 201.88902 579.27814 202.54527L579.27814 205.8109L578.23126 205.8109Z" fill-rule="nonzero"/><path fill="#9e9e9e" d="M550.91876 222.8109L549.8719 222.8109L549.8719 216.09215Q549.48126 216.45152 548.85626 216.82652Q548.2469 217.1859 547.7625 217.35777L547.7625 216.34215Q548.6375 215.92027 549.29376 215.34215Q549.96564 214.7484 550.2469 214.1859L550.91876 214.1859L550.91876 222.8109ZM553.95 220.5609L555.0594 220.46715Q555.1844 221.27965 555.6219 221.6859Q556.075 222.09215 556.71564 222.09215Q557.46564 222.09215 557.9969 221.51402Q558.52814 220.9359 558.52814 219.9984Q558.52814 219.09215 558.0125 218.57652Q557.5125 218.04527 556.6844 218.04527Q556.1844 218.04527 555.7625 218.27965Q555.35626 218.51402 555.1219 218.8734L554.1375 218.7484L554.96564 214.34215L559.2469 214.34215L559.2469 215.34215L555.8094 215.34215L555.35626 217.65465Q556.1219 217.10777 556.96564 217.10777Q558.09064 217.10777 558.85626 217.88902Q559.6375 218.67027 559.6375 219.90465Q559.6375 221.0609 558.96564 221.92027Q558.1375 222.95152 556.71564 222.95152Q555.54376 222.95152 554.79376 222.29527Q554.0594 221.63902 553.95 220.5609ZM561.5125 222.8109L561.5125 221.60777L562.71564 221.60777L562.71564 222.8109Q562.71564 223.46715 562.48126 223.8734Q562.2469 224.29527 561.7469 224.51402L561.45 224.0609Q561.77814 223.92027 561.9344 223.6234Q562.09064 223.34215 562.1219 222.8109L561.5125 222.8109ZM563.95 218.57652Q563.95 217.04527 564.2625 216.1234Q564.575 215.1859 565.1844 214.6859Q565.8094 214.1859 566.7469 214.1859Q567.4344 214.1859 567.95 214.46715Q568.48126 214.7484 568.825 215.27965Q569.16876 215.79527 569.35626 216.54527Q569.54376 217.29527 569.54376 218.57652Q569.54376 220.09215 569.23126 221.01402Q568.9344 221.9359 568.3094 222.45152Q567.7 222.95152 566.7469 222.95152Q565.5125 222.95152 564.79376 222.0609Q563.95 220.9984 563.95 218.57652ZM565.02814 218.57652Q565.02814 220.6859 565.52814 221.38902Q566.02814 222.09215 566.7469 222.09215Q567.48126 222.09215 567.96564 221.38902Q568.46564 220.6859 568.46564 218.57652Q568.46564 216.45152 567.96564 215.76402Q567.48126 215.0609 566.73126 215.0609Q566.0125 215.0609 565.575 215.67027Q565.02814 216.45152 565.02814 218.57652ZM571.15314 216.27965Q571.15314 215.35777 571.60626 214.71715Q572.075 214.07652 572.95 214.07652Q573.7625 214.07652 574.29376 214.65465Q574.825 215.23277 574.825 216.34215Q574.825 217.4359 574.27814 218.02965Q573.7469 218.60777 572.96564 218.60777Q572.1844 218.60777 571.66876 218.02965Q571.15314 217.45152 571.15314 216.27965ZM572.98126 214.79527Q572.59064 214.79527 572.325 215.13902Q572.075 215.48277 572.075 216.38902Q572.075 217.21715 572.325 217.5609Q572.59064 217.88902 572.98126 217.88902Q573.3875 217.88902 573.6375 217.54527Q573.90314 217.20152 573.90314 216.3109Q573.90314 215.46715 573.6375 215.13902Q573.3719 214.79527 572.98126 214.79527ZM572.98126 223.1234L577.6844 214.07652L578.54376 214.07652L573.85626 223.1234L572.98126 223.1234ZM576.7 220.79527Q576.7 219.8734 577.15314 219.23277Q577.6219 218.59215 578.5125 218.59215Q579.325 218.59215 579.85626 219.17027Q580.3875 219.73277 580.3875 220.85777Q580.3875 221.95152 579.84064 222.54527Q579.3094 223.1234 578.5125 223.1234Q577.7469 223.1234 577.21564 222.54527Q576.7 221.96715 576.7 220.79527ZM578.54376 219.3109Q578.1375 219.3109 577.8719 219.65465Q577.6219 219.9984 577.6219 220.90465Q577.6219 221.71715 577.8875 222.0609Q578.15314 222.40465 578.54376 222.40465Q578.9344 222.40465 579.2 222.0609Q579.46564 221.71715 579.46564 220.8109Q579.46564 219.98277 579.2 219.65465Q578.9344 219.3109 578.54376 219.3109Z" fill-rule="nonzero"/><path stroke="#757575" stroke-width="1.0" stroke-linecap="butt" d="M581.45 210.3109L472.95 210.3109L456.64984 210.3109" fill-rule="nonzero"/><path fill="#9e9e9e" d="M458.64984 210.3109C458.64984 209.20633 457.7544 208.3109 456.64984 208.3109C455.54526 208.3109 454.64984 209.20633 454.64984 210.3109C454.64984 211.41547 455.54526 212.3109 456.64984 212.3109C457.7544 212.3109 458.64984 211.41547 458.64984 210.3109" fill-rule="nonzero"/><path fill="#1a1a1a" d="M536.3875 332.45L536.3875 323.85626L540.2 323.85626Q541.35626 323.85626 541.95 324.09064Q542.54376 324.325 542.90314 324.91876Q543.2625 325.4969 543.2625 326.2Q543.2625 327.1219 542.66876 327.7469Q542.075 328.3719 540.84064 328.54376Q541.29376 328.7625 541.52814 328.96564Q542.02814 329.41876 542.46564 330.10626L543.96564 332.45L542.52814 332.45L541.40314 330.66876Q540.90314 329.8875 540.575 329.48126Q540.2625 329.075 539.9969 328.91876Q539.7469 328.7469 539.48126 328.66876Q539.29376 328.6375 538.85626 328.6375L537.52814 328.6375L537.52814 332.45L536.3875 332.45ZM537.52814 327.65314L539.98126 327.65314Q540.7469 327.65314 541.1844 327.4969Q541.6375 327.325 541.85626 326.98126Q542.09064 326.6219 542.09064 326.2Q542.09064 325.59064 541.6375 325.2Q541.2 324.8094 540.2469 324.8094L537.52814 324.8094L537.52814 327.65314ZM549.4969 330.45L550.59064 330.575Q550.34064 331.52814 549.6375 332.0594Q548.9344 332.59064 547.85626 332.59064Q546.4969 332.59064 545.6844 331.7469Q544.8875 330.90314 544.8875 329.3875Q544.8875 327.825 545.7 326.96564Q546.5125 326.09064 547.79376 326.09064Q549.04376 326.09064 549.825 326.9344Q550.6219 327.77814 550.6219 329.325Q550.6219 329.41876 550.6219 329.60626L545.98126 329.60626Q546.04376 330.6375 546.5594 331.1844Q547.075 331.71564 547.85626 331.71564Q548.4344 331.71564 548.84064 331.41876Q549.2625 331.10626 549.4969 330.45ZM546.04376 328.7469L549.5125 328.7469Q549.45 327.95 549.1219 327.5594Q548.60626 326.95 547.8094 326.95Q547.075 326.95 546.575 327.4344Q546.09064 327.91876 546.04376 328.7469ZM551.825 330.59064L552.85626 330.4344Q552.95 331.0594 553.34064 331.3875Q553.7469 331.71564 554.48126 331.71564Q555.2 331.71564 555.54376 331.4344Q555.90314 331.1375 555.90314 330.73126Q555.90314 330.3719 555.59064 330.16876Q555.3719 330.02814 554.5125 329.8094Q553.35626 329.5125 552.90314 329.3094Q552.46564 329.09064 552.23126 328.71564Q551.9969 328.34064 551.9969 327.8719Q551.9969 327.46564 552.1844 327.10626Q552.3719 326.7469 552.7 326.5125Q552.95 326.34064 553.3719 326.21564Q553.79376 326.09064 554.29376 326.09064Q555.0125 326.09064 555.5594 326.3094Q556.1219 326.5125 556.3875 326.8719Q556.65314 327.23126 556.7469 327.825L555.71564 327.96564Q555.65314 327.4969 555.3094 327.23126Q554.98126 326.95 554.35626 326.95Q553.6375 326.95 553.325 327.2Q553.0125 327.4344 553.0125 327.7625Q553.0125 327.96564 553.1375 328.1219Q553.27814 328.29376 553.54376 328.40314Q553.7 328.46564 554.48126 328.66876Q555.60626 328.98126 556.04376 329.16876Q556.48126 329.35626 556.73126 329.71564Q556.98126 330.075 556.98126 330.6219Q556.98126 331.15314 556.66876 331.6219Q556.3719 332.075 555.79376 332.34064Q555.21564 332.59064 554.48126 332.59064Q553.2625 332.59064 552.6219 332.09064Q551.9969 331.575 551.825 330.59064ZM563.4969 330.45L564.59064 330.575Q564.34064 331.52814 563.6375 332.0594Q562.9344 332.59064 561.85626 332.59064Q560.4969 332.59064 559.6844 331.7469Q558.8875 330.90314 558.8875 329.3875Q558.8875 327.825 559.7 326.96564Q560.5125 326.09064 561.79376 326.09064Q563.04376 326.09064 563.825 326.9344Q564.6219 327.77814 564.6219 329.325Q564.6219 329.41876 564.6219 329.60626L559.98126 329.60626Q560.04376 330.6375 560.5594 331.1844Q561.075 331.71564 561.85626 331.71564Q562.4344 331.71564 562.84064 331.41876Q563.2625 331.10626 563.4969 330.45ZM560.04376 328.7469L563.5125 328.7469Q563.45 327.95 563.1219 327.5594Q562.60626 326.95 561.8094 326.95Q561.075 326.95 560.575 327.4344Q560.09064 327.91876 560.04376 328.7469ZM566.23126 332.45L566.23126 326.23126L567.1844 326.23126L567.1844 327.16876Q567.54376 326.5125 567.84064 326.3094Q568.15314 326.09064 568.52814 326.09064Q569.0594 326.09064 569.60626 326.41876L569.2469 327.40314Q568.85626 327.16876 568.48126 327.16876Q568.1219 327.16876 567.84064 327.3875Q567.575 327.59064 567.46564 327.96564Q567.27814 328.52814 567.27814 329.1844L567.27814 332.45L566.23126 332.45ZM571.96564 332.45L569.60626 326.23126L570.71564 326.23126L572.0594 329.95Q572.2625 330.5594 572.45 331.2Q572.59064 330.71564 572.84064 330.02814L574.23126 326.23126L575.3094 326.23126L572.95 332.45L571.96564 332.45ZM579.4969 330.45L580.59064 330.575Q580.34064 331.52814 579.6375 332.0594Q578.9344 332.59064 577.85626 332.59064Q576.4969 332.59064 575.6844 331.7469Q574.8875 330.90314 574.8875 329.3875Q574.8875 327.825 575.7 326.96564Q576.5125 326.09064 577.79376 326.09064Q579.04376 326.09064 579.825 326.9344Q580.6219 327.77814 580.6219 329.325Q580.6219 329.41876 580.6219 329.60626L575.98126 329.60626Q576.04376 330.6375 576.5594 331.1844Q577.075 331.71564 577.85626 331.71564Q578.4344 331.71564 578.84064 331.41876Q579.2625 331.10626 579.4969 330.45ZM576.04376 328.7469L579.5125 328.7469Q579.45 327.95 579.1219 327.5594Q578.60626 326.95 577.8094 326.95Q577.075 326.95 576.575 327.4344Q576.09064 327.91876 576.04376 328.7469Z" fill-rule="nonzero"/><path fill="#9e9e9e" d="M546.95 347.1844L548.0125 347.04376Q548.1844 347.9344 548.6219 348.34064Q549.0594 348.73126 549.6844 348.73126Q550.4344 348.73126 550.95 348.21564Q551.46564 347.7 551.46564 346.9344Q551.46564 346.21564 550.98126 345.7469Q550.5125 345.2625 549.77814 345.2625Q549.48126 345.2625 549.02814 345.3875L549.15314 344.45Q549.2625 344.46564 549.325 344.46564Q549.9969 344.46564 550.52814 344.1219Q551.075 343.7625 551.075 343.02814Q551.075 342.45 550.6844 342.075Q550.29376 341.6844 549.66876 341.6844Q549.0594 341.6844 548.6375 342.075Q548.23126 342.46564 548.1219 343.23126L547.0594 343.04376Q547.2469 341.9969 547.9344 341.41876Q548.6219 340.825 549.6375 340.825Q550.34064 340.825 550.9344 341.1375Q551.52814 341.4344 551.84064 341.95Q552.15314 342.46564 552.15314 343.0594Q552.15314 343.60626 551.85626 344.075Q551.5594 344.52814 550.98126 344.79376Q551.73126 344.96564 552.15314 345.52814Q552.575 346.075 552.575 346.91876Q552.575 348.04376 551.7469 348.825Q550.9344 349.60626 549.6844 349.60626Q548.5594 349.60626 547.8094 348.9344Q547.0594 348.2469 546.95 347.1844ZM553.95 345.21564Q553.95 343.6844 554.2625 342.7625Q554.575 341.825 555.1844 341.325Q555.8094 340.825 556.7469 340.825Q557.4344 340.825 557.95 341.10626Q558.48126 341.3875 558.825 341.91876Q559.16876 342.4344 559.35626 343.1844Q559.54376 343.9344 559.54376 345.21564Q559.54376 346.73126 559.23126 347.65314Q558.9344 348.575 558.3094 349.09064Q557.7 349.59064 556.7469 349.59064Q555.5125 349.59064 554.79376 348.7Q553.95 347.6375 553.95 345.21564ZM555.02814 345.21564Q555.02814 347.325 555.52814 348.02814Q556.02814 348.73126 556.7469 348.73126Q557.48126 348.73126 557.96564 348.02814Q558.46564 347.325 558.46564 345.21564Q558.46564 343.09064 557.96564 342.40314Q557.48126 341.7 556.73126 341.7Q556.0125 341.7 555.575 342.3094Q555.02814 343.09064 555.02814 345.21564ZM561.5125 349.45L561.5125 348.2469L562.71564 348.2469L562.71564 349.45Q562.71564 350.10626 562.48126 350.5125Q562.2469 350.9344 561.7469 351.15314L561.45 350.7Q561.77814 350.5594 561.9344 350.2625Q562.09064 349.98126 562.1219 349.45L561.5125 349.45ZM563.95 345.21564Q563.95 343.6844 564.2625 342.7625Q564.575 341.825 565.1844 341.325Q565.8094 340.825 566.7469 340.825Q567.4344 340.825 567.95 341.10626Q568.48126 341.3875 568.825 341.91876Q569.16876 342.4344 569.35626 343.1844Q569.54376 343.9344 569.54376 345.21564Q569.54376 346.73126 569.23126 347.65314Q568.9344 348.575 568.3094 349.09064Q567.7 349.59064 566.7469 349.59064Q565.5125 349.59064 564.79376 348.7Q563.95 347.6375 563.95 345.21564ZM565.02814 345.21564Q565.02814 347.325 565.52814 348.02814Q566.02814 348.73126 566.7469 348.73126Q567.48126 348.73126 567.96564 348.02814Q568.46564 347.325 568.46564 345.21564Q568.46564 343.09064 567.96564 342.40314Q567.48126 341.7 566.73126 341.7Q566.0125 341.7 565.575 342.3094Q565.02814 343.09064 565.02814 345.21564ZM571.15314 342.91876Q571.15314 341.9969 571.60626 341.35626Q572.075 340.71564 572.95 340.71564Q573.7625 340.71564 574.29376 341.29376Q574.825 341.8719 574.825 342.98126Q574.825 344.075 574.27814 344.66876Q573.7469 345.2469 572.96564 345.2469Q572.1844 345.2469 571.66876 344.66876Q571.15314 344.09064 571.15314 342.91876ZM572.98126 341.4344Q572.59064 341.4344 572.325 341.77814Q572.075 342.1219 572.075 343.02814Q572.075 343.85626 572.325 344.2Q572.59064 344.52814 572.98126 344.52814Q573.3875 344.52814 573.6375 344.1844Q573.90314 343.84064 573.90314 342.95Q573.90314 342.10626 573.6375 341.77814Q573.3719 341.4344 572.98126 341.4344ZM572.98126 349.7625L577.6844 340.71564L578.54376 340.71564L573.85626 349.7625L572.98126 349.7625ZM576.7 347.4344Q576.7 346.5125 577.15314 345.8719Q577.6219 345.23126 578.5125 345.23126Q579.325 345.23126 579.85626 345.8094Q580.3875 346.3719 580.3875 347.4969Q580.3875 348.59064 579.84064 349.1844Q579.3094 349.7625 578.5125 349.7625Q577.7469 349.7625 577.21564 349.1844Q576.7 348.60626 576.7 347.4344ZM578.54376 345.95Q578.1375 345.95 577.8719 346.29376Q577.6219 346.6375 577.6219 347.54376Q577.6219 348.35626 577.8875 348.7Q578.15314 349.04376 578.54376 349.04376Q578.9344 349.04376 579.2 348.7Q579.46564 348.35626 579.46564 347.45Q579.46564 346.6219 579.2 346.29376Q578.9344 345.95 578.54376 345.95Z" fill-rule="nonzero"/><path stroke="#757575" stroke-width="1.0" stroke-linecap="butt" d="M581.45 336.95L472.95 336.95L300.0 344.1025" fill-rule="nonzero"/><path fill="#9e9e9e" d="M302.0 344.1025C302.0 342.99792 301.10458 342.1025 300.0 342.1025C298.89542 342.1025 298.0 342.99792 298.0 344.1025C298.0 345.20706 298.89542 346.1025 300.0 346.1025C301.10458 346.1025 302.0 345.20706 302.0 344.1025" fill-rule="nonzero"/></svg>