<svg width="1790" height="500" viewBox="0 0 1790 500" fill="none" xmlns="http://www.w3.org/2000/svg">
<path d="M145.096 189.434L250 128.868L354.904 189.434V310.566L250 371.132L145.096 310.566V189.434Z" stroke="white" stroke-width="50"/>
<path d="M529.8 297H504V196.95H554.1C564.9 196.95 573.4 200.15 579.6 206.55C585.8 212.85 588.9 220.75 588.9 230.25C588.9 239.65 585.8 247.55 579.6 253.95C573.4 260.25 564.9 263.4 554.1 263.4H529.8V297ZM550.65 240.9C554.15 240.9 557 239.95 559.2 238.05C561.5 236.15 562.65 233.55 562.65 230.25C562.65 226.85 561.5 224.2 559.2 222.3C557 220.4 554.15 219.45 550.65 219.45H529.8V240.9H550.65ZM625.8 298.8C613.9 298.8 604.35 295.1 597.15 287.7C589.95 280.3 586.35 271.3 586.35 260.7C586.35 250.1 589.95 241.15 597.15 233.85C604.35 226.45 613.9 222.75 625.8 222.75C637.8 222.75 647.4 226.45 654.6 233.85C661.8 241.15 665.4 250.1 665.4 260.7C665.4 271.3 661.8 280.3 654.6 287.7C647.4 295.1 637.8 298.8 625.8 298.8ZM614.25 273.45C617.05 276.75 620.9 278.4 625.8 278.4C630.7 278.4 634.55 276.75 637.35 273.45C640.25 270.05 641.7 265.8 641.7 260.7C641.7 255.7 640.25 251.55 637.35 248.25C634.55 244.85 630.7 243.15 625.8 243.15C620.9 243.15 617.05 244.85 614.25 248.25C611.55 251.55 610.2 255.7 610.2 260.7C610.2 265.8 611.55 270.05 614.25 273.45ZM694.676 297H671.576V196.95H694.676V297ZM703.92 325.2L707.22 304.65C708.82 305.55 710.72 306 712.92 306C718.32 306 721.57 304.65 722.67 301.95L724.32 298.05L695.52 224.55H719.82L736.17 270.45L752.67 224.55H777.12L744.42 307.35C741.72 314.45 737.87 319.35 732.87 322.05C727.87 324.75 721.52 326.2 713.82 326.4C709.82 326.4 706.52 326 703.92 325.2ZM808.232 326.4C795.632 326.4 784.932 322.8 776.132 315.6L786.182 299.1C791.382 304.7 798.732 307.5 808.232 307.5C813.032 307.5 817.282 306.25 820.982 303.75C824.782 301.25 826.682 296.95 826.682 290.85V285.3C820.682 292.3 813.532 295.8 805.232 295.8C795.932 295.8 788.282 292.65 782.282 286.35C776.282 279.95 773.282 270.9 773.282 259.2C773.282 247.6 776.232 238.65 782.132 232.35C788.132 225.95 795.832 222.75 805.232 222.75C813.932 222.75 821.082 226.2 826.682 233.1V224.55H849.632V290.55C849.632 296.25 848.732 301.25 846.932 305.55C845.232 309.95 843.032 313.4 840.332 315.9C837.632 318.5 834.382 320.6 830.582 322.2C826.782 323.9 823.082 325 819.482 325.5C815.882 326.1 812.132 326.4 808.232 326.4ZM812.882 275.4C815.382 275.4 817.932 274.8 820.532 273.6C823.232 272.4 825.282 270.85 826.682 268.95V249.6C825.282 247.7 823.232 246.15 820.532 244.95C817.932 243.75 815.382 243.15 812.882 243.15C808.182 243.15 804.332 244.55 801.332 247.35C798.432 250.15 796.982 254.1 796.982 259.2C796.982 264.4 798.432 268.4 801.332 271.2C804.332 274 808.182 275.4 812.882 275.4ZM895.208 298.8C883.308 298.8 873.758 295.1 866.558 287.7C859.358 280.3 855.758 271.3 855.758 260.7C855.758 250.1 859.358 241.15 866.558 233.85C873.758 226.45 883.308 222.75 895.208 222.75C907.208 222.75 916.808 226.45 924.008 233.85C931.208 241.15 934.808 250.1 934.808 260.7C934.808 271.3 931.208 280.3 924.008 287.7C916.808 295.1 907.208 298.8 895.208 298.8ZM883.658 273.45C886.458 276.75 890.308 278.4 895.208 278.4C900.108 278.4 903.958 276.75 906.758 273.45C909.658 270.05 911.108 265.8 911.108 260.7C911.108 255.7 909.658 251.55 906.758 248.25C903.958 244.85 900.108 243.15 895.208 243.15C890.308 243.15 886.458 244.85 883.658 248.25C880.958 251.55 879.608 255.7 879.608 260.7C879.608 265.8 880.958 270.05 883.658 273.45ZM1013.13 297H990.034V255.15C990.034 247.15 986.084 243.15 978.184 243.15C972.584 243.15 967.884 245.5 964.084 250.2V297H940.984V224.55H964.084V233.4C970.184 226.3 978.534 222.75 989.134 222.75C997.134 222.75 1003.13 224.85 1007.13 229.05C1011.13 233.15 1013.13 238.7 1013.13 245.7V297ZM1095.9 297H1072.8V288.3C1066.6 295.3 1058.25 298.8 1047.75 298.8C1039.75 298.8 1033.75 296.8 1029.75 292.8C1025.85 288.7 1023.9 283.15 1023.9 276.15V224.55H1047V266.7C1047 274.5 1051 278.4 1059 278.4C1064.5 278.4 1069.1 276.05 1072.8 271.35V224.55H1095.9V297ZM1220.97 297H1198.02V252.9C1198.02 246.4 1194.82 243.15 1188.42 243.15C1183.22 243.15 1178.87 245.5 1175.37 250.2V297H1152.27V252.9C1152.27 246.4 1149.07 243.15 1142.67 243.15C1137.87 243.15 1133.57 245.5 1129.77 250.2V297H1106.67V224.55H1129.77V233.4C1131.67 230.9 1134.82 228.5 1139.22 226.2C1143.62 223.9 1148.42 222.75 1153.62 222.75C1164.32 222.75 1171.17 227.05 1174.17 235.65C1176.47 232.15 1179.87 229.15 1184.37 226.65C1188.97 224.05 1193.92 222.75 1199.22 222.75C1206.12 222.75 1211.47 224.6 1215.27 228.3C1219.07 231.9 1220.97 237.3 1220.97 244.5V297ZM1253.52 294.6C1250.72 297.4 1247.42 298.8 1243.62 298.8C1239.82 298.8 1236.52 297.4 1233.72 294.6C1230.92 291.8 1229.52 288.5 1229.52 284.7C1229.52 280.9 1230.92 277.6 1233.72 274.8C1236.52 272 1239.82 270.6 1243.62 270.6C1247.42 270.6 1250.72 272 1253.52 274.8C1256.32 277.6 1257.72 280.9 1257.72 284.7C1257.72 288.5 1256.32 291.8 1253.52 294.6ZM1353.65 284.25C1343.55 293.95 1330.8 298.8 1315.4 298.8C1300 298.8 1287.2 293.95 1277 284.25C1266.9 274.55 1261.85 262.15 1261.85 247.05C1261.85 231.95 1266.9 219.55 1277 209.85C1287.2 200.15 1300 195.3 1315.4 195.3C1330.8 195.3 1343.55 200.15 1353.65 209.85C1363.75 219.55 1368.8 231.95 1368.8 247.05C1368.8 262.15 1363.75 274.55 1353.65 284.25ZM1315.4 276C1323.5 276 1330.05 273.25 1335.05 267.75C1340.05 262.25 1342.55 255.35 1342.55 247.05C1342.55 238.75 1340.05 231.85 1335.05 226.35C1330.05 220.85 1323.5 218.1 1315.4 218.1C1307.2 218.1 1300.6 220.85 1295.6 226.35C1290.6 231.85 1288.1 238.75 1288.1 247.05C1288.1 255.35 1290.6 262.25 1295.6 267.75C1300.6 273.25 1307.2 276 1315.4 276ZM1447.34 297H1424.24V255.15C1424.24 247.15 1420.29 243.15 1412.39 243.15C1406.79 243.15 1402.09 245.5 1398.29 250.2V297H1375.19V224.55H1398.29V233.4C1404.39 226.3 1412.74 222.75 1423.34 222.75C1431.34 222.75 1437.34 224.85 1441.34 229.05C1445.34 233.15 1447.34 238.7 1447.34 245.7V297ZM1481.21 297H1458.11V196.95H1481.21V297ZM1512.8 214.2C1510.3 216.8 1507.2 218.1 1503.5 218.1C1499.8 218.1 1496.65 216.8 1494.05 214.2C1491.55 211.6 1490.3 208.45 1490.3 204.75C1490.3 201.05 1491.55 197.95 1494.05 195.45C1496.65 192.85 1499.8 191.55 1503.5 191.55C1507.2 191.55 1510.3 192.85 1512.8 195.45C1515.4 197.95 1516.7 201.05 1516.7 204.75C1516.7 208.45 1515.4 211.6 1512.8 214.2ZM1515.05 297H1491.95V224.55H1515.05V297ZM1597.95 297H1574.85V255.15C1574.85 247.15 1570.9 243.15 1563 243.15C1557.4 243.15 1552.7 245.5 1548.9 250.2V297H1525.8V224.55H1548.9V233.4C1555 226.3 1563.35 222.75 1573.95 222.75C1581.95 222.75 1587.95 224.85 1591.95 229.05C1595.95 233.15 1597.95 238.7 1597.95 245.7V297ZM1643.51 298.8C1632.11 298.8 1622.66 295.35 1615.16 288.45C1607.66 281.45 1603.91 272.2 1603.91 260.7C1603.91 250 1607.51 241 1614.71 233.7C1622.01 226.4 1631.26 222.75 1642.46 222.75C1653.36 222.75 1662.26 226.45 1669.16 233.85C1676.06 241.15 1679.51 250.9 1679.51 263.1V268.05H1627.91C1628.61 271.65 1630.56 274.7 1633.76 277.2C1636.96 279.7 1641.06 280.95 1646.06 280.95C1648.86 280.95 1652.06 280.4 1655.66 279.3C1659.36 278.1 1662.16 276.6 1664.06 274.8L1673.81 289.2C1670.31 292.3 1665.81 294.7 1660.31 296.4C1654.91 298 1649.31 298.8 1643.51 298.8ZM1657.46 253.05C1657.06 249.85 1655.66 247 1653.26 244.5C1650.86 241.9 1647.26 240.6 1642.46 240.6C1637.96 240.6 1634.51 241.85 1632.11 244.35C1629.71 246.85 1628.21 249.75 1627.61 253.05H1657.46Z" fill="white"/>
</svg>
