<svg id="Layer_1" data-name="Layer 1" xmlns="http://www.w3.org/2000/svg" viewBox="0 0 512 512"><defs><style>.cls-1{fill:#fff;}</style></defs><path class="cls-1" d="M511.78,381.2c-.15-5.78-.26-11.56-.28-17.35L512,164c1.28-33.59-36.54-53.21-36.54-53.21L284.65,7.92a58.65,58.65,0,0,0-14.77-6C246-4,226.29,7.12,226.29,7.12l-203.46,112c-9,4.92-14.61,13.47-18.11,21.54A67,67,0,0,0-.74,167.44l.3,219.2A53.33,53.33,0,0,0,9.3,417.41l.36.51A53,53,0,0,0,26,432.63l72.86,36.5.21-.24,1.29-6.57a1,1,0,0,1,1-.82c1.59.06,5,.42,7.22,2.34a3,3,0,0,1,.72,3.47,6.57,6.57,0,0,1-3.46,3.57.54.54,0,0,0-.08,1l21.9,12.6a1.15,1.15,0,0,0,1.72-1c.06-4.76.34-16.69,1.75-19.25,1.76-3.22,10.58-4.34,10.58.48s-5.13,11.41-5.93,14.79,0,9.16,3.85,9.8c3.14.53,1.26-2.81.37-4.84a.35.35,0,0,1,.53-.41l8.18,6.38a.38.38,0,0,0,.6-.43c-.29-.83-3.24-4.66-2.94-9.7.8-13.51.42-26.63.58-31a.32.32,0,0,1,.63-.1,94.79,94.79,0,0,1,4.08,18.1c1.35,9.87,4.79,11.6,6.31,11.87a.65.65,0,0,1,.51.83l-2.13,7.2a7,7,0,0,0,.17,4.51l1.08,2.79a.71.71,0,0,0,1.25.14c2.55-3.79,10.33-16.22,5.32-20.43-5.93-5-2.89-7.71-3.05-11.57s-3-16.55-8.66-22.82,6.58-5.63,8.66-1.77c1.81,3.34,2.29,16.72,2.39,20.22a2.21,2.21,0,0,0,.59,1.46l3.08,3.42a.43.43,0,0,0,.75-.32l-.66-9.37a.38.38,0,0,1,.6-.34l2.27,1.55a1.48,1.48,0,0,1,.64,1.16L171.3,468a3.41,3.41,0,0,0,3.27,3.3,3.35,3.35,0,0,0,3.42-3.37l-.13-33.75a.67.67,0,0,1,1.21-.39l5.3,7.45a.6.6,0,0,0,1.08-.35l-.14-19.5s-7.41-33.43-6.17-58.75a57.51,57.51,0,0,1,2.55-14.36c1.3-4.19,2.73-11.1.07-16.08a21.58,21.58,0,0,1-2-5.14c-.43-1.81-1-4.38-1.51-7.89-1.57-9.86-8.21-13.51-9.45-17.1-.21-.6-.45-1.18-.7-1.76-.92-2.2-2.73-8.5-2.36-23.57.48-20.09-2.57-22.5-3.21-26.52s-1.29-19.45,9.62-29.25,12.43-12.78,19.49-12.62,7.06,10.77,6.26,12.22S190,233.26,190,233.26L189.4,240l9.34,10.43a28.23,28.23,0,0,1,5.18,8.35l.4,1,.09-.18c1.19-5,.9-10.11,2.15-15.41,1.48-6.26,2.09-13,4.81-19.28,0,0,1.76-1.91,1.77-1.93,1.48-4.31,1.3-7.29,1.09-11.84l-.51-11.2c-.05-1-.07-1.94-.1-2.9a59.8,59.8,0,0,0-.79-6.6c-1.78-8.13-1.74-8.37-2-13.82l-1-21.23a24.58,24.58,0,0,1,.86-7.68,47.12,47.12,0,0,1,12.18-20.5q2.34-2.35,4.53-4.85c4.22-4.8,13.78-14.14,20-8.52,8.18,7.4,2.4,17.36,2.4,17.36s-8.46,14.69-10.7,22.75c-.33,1.17-.7,2.32-1.1,3.47-1.18,3.42-3.17,10.57-1,15.09,2.43,5.13,13.92,20.72,17.53,25.56a2.26,2.26,0,0,0,3.92-.53,17.38,17.38,0,0,0,.85-3.49c.94-6.24,3.72-19.12,3.89-27.62a25.93,25.93,0,0,1,2.62-10.79c3-6.15,8.3-15.14,15.72-20.26a11.11,11.11,0,0,1,6.08-1.95,46,46,0,0,1,13.82,1.68,17.35,17.35,0,0,0,3,.63c4.13.48,14.58,1.73,16.75,2.37,2.73.81,8.83,3.06,6.58,8.84a41.9,41.9,0,0,1-5.76,9.58,12.51,12.51,0,0,1-3.95,3.32,13.65,13.65,0,0,1-5.21,1.25c-2.76.21-6.56-.2-9.14.32a18.78,18.78,0,0,0-7.06,3.54L294,167.52c-.34.33-.67.67-1,1l-1.78,2a19.53,19.53,0,0,0-3.53,6.43c-1.17,4.68-1,16.06-2.41,21.54-1.76,7.07-.32,16.87,3.21,19.28,2.1,1.44,4.53,2.59,9.3.65,4.23-1.72,8.89-4.14,11.71-7.72,2.6-3.28,5.52-8.09,9.93-9.83l.62-.26c3.09-1.38,30.66-13.83,42.63-2.84l.4.37c1.2,1,8.56,8,4.83,20.56a5.16,5.16,0,0,1-2.89,3.28c-3.92,1.7-4.79-.06-18.94.13-2.94,0-9.36.76-12.14,1.72-4.93,1.71-11.92,5.16-13.78,11.38-.22.73-.45,1.45-.71,2.16-1.59,4.37-6.32,18.84-1.63,24.86.49.64,1,1.29,1.44,1.93,1.12,1.53,5,4.12,18,.39,16.91-4.87,26.18-6.06,34.67.32l1.29.94c1.9,1.33,6.87,4.84,7.19,7.9.14,1.35.6,3.78.64,6.1s0,3.9,0,5a16,16,0,0,1-.92,3.8,5,5,0,0,1-3.73,3.59c-4,.8-5.94-2.57-8-6.11a.61.61,0,0,1-.07-.1,8.3,8.3,0,0,0-6.85-3.73c-8-.51-28.16,2.43-41.85,13.64,0,0-13,7.55-13.63,19.12,0,0-.81,17-24.23,42.76s-26,43.55-24.22,54c1.05,6.2,5.21,22.58,9.14,36.32,2.7,9.42,5.14,15.76,5.94,20.58,1,5.9,6.69,22.54,8.73,27.24.22.5,2.26.69,2.28.14l-.33-7.36c-.05-1-.22-2.32.39-3a2.63,2.63,0,0,1,3.81-.45l3,1.93a3,3,0,0,0,4.54-3,33.47,33.47,0,0,0-2.79-8.94,59.41,59.41,0,0,1-3.92-9,3,3,0,0,1,3-4.1,2.24,2.24,0,0,0,2.2-2.64,15.72,15.72,0,0,0-1.94-5.13l-.87-1.48a1.62,1.62,0,0,1,.44-2.14l11.64-8.45a1.1,1.1,0,0,1,1.75.9l-.94,17.66a2,2,0,0,0,.06.65,1.24,1.24,0,0,0,1.94.69l.3-.2a.93.93,0,0,1,1.46.81,10.17,10.17,0,0,1-.9,3.8l-2.82,6.22a3.18,3.18,0,0,0-.27,1.69l.49,4.41a.84.84,0,0,0,1.48.44c2.18-2.66,6.67-8.43,9.16-13.77s5.67-12.15,7.16-15.37a.64.64,0,0,1,1.2.13c.68,2.89,2.66,7.91,8.06,7.44a.52.52,0,0,1,.45.86l-12,14a11.53,11.53,0,0,0-2.65,5.67,6,6,0,0,0,0,2.15,1.53,1.53,0,0,0,2.58.74l6-5.92a.57.57,0,0,1,.9.66l-5.83,11.36a1,1,0,0,0,1.22,1.43c2.53-.83,6.59-2.62,9-6a20.67,20.67,0,0,1,2-2.39l1.06-1.1a.68.68,0,0,1,1.17.6,15.86,15.86,0,0,1-4.42,7.57,2.18,2.18,0,0,0-.64,2.09,2,2,0,0,0,1.76,1.29c2.54,0,7.54-3.55,7.54-7.23v0a.58.58,0,0,1,1.11-.28,28.06,28.06,0,0,1,1.59,13.7c-.05.45-.08.9-.1,1.36a16.51,16.51,0,0,1-.37,2.71l0,.13L341,502.8a2.43,2.43,0,0,1-1.93,2.07l-.73.16-3.16.87a.94.94,0,0,0-.76,1.36l2,3.95,151.94-81.7C510.47,415.56,512,390.51,511.78,381.2ZM119.94,448.15c-4,.65-10.11-8.51-10.11-8.51s-3.37-4.5,2.09-4.66a49,49,0,0,1,6,.18,4.48,4.48,0,0,1,4,3.93C122.38,442.65,122.52,447.74,119.94,448.15Zm-2.25-21.37c-6.84-6-3.52-20.79-2.61-24.31a.6.6,0,0,1,.89-.37c7.34,4.5,9.52,12.69,9.85,14.16,0,.13.09.26.12.39C126.84,421,123.79,432.11,117.69,426.78Zm26.82,22.64a6.17,6.17,0,0,1-1.56,4.05c-1.5,1.65-3.41,2-6.32-1.38a5.2,5.2,0,0,1-.51-.72,14.18,14.18,0,0,0-3.57-4.06,4.36,4.36,0,0,1-2.14-3.19,9.49,9.49,0,0,1,0-1.6l.23-3.64q.06-.86.06-1.71v-2.68a26.07,26.07,0,0,0-.33-4.14l-.43-2.63a2,2,0,0,1,2-2l9.57.34a1.78,1.78,0,0,1,1.64,2.31l-3.61,11.69a1.21,1.21,0,0,0,1.22,1.57l1.64-.1a2.09,2.09,0,0,1,2.2,2.12Z"/></svg>