<svg width="257" height="48" viewBox="0 0 257 48" fill="none" xmlns="http://www.w3.org/2000/svg">
<circle cx="24" cy="24" r="23" stroke="#F4F5F7" stroke-width="2"/>
<path fill-rule="evenodd" clip-rule="evenodd" d="M20.2273 17.2007C20.1296 17.1348 20 17.1247 19.8917 17.1754C19.7837 17.2261 19.7156 17.3289 19.7156 17.4413V30.5595C19.7156 30.6719 19.7837 30.7747 19.8917 30.8254C19.9374 30.8469 19.9875 30.8576 20.037 30.8576C20.1042 30.8576 20.171 30.8382 20.2273 30.8001L29.8701 24.241C29.9528 24.1847 30.0013 24.0952 30.0013 24.0004C30.0013 23.9056 29.9528 23.8162 29.8701 23.7598L20.2273 17.2007Z" stroke="#F4F5F7" stroke-width="2"/>
<line x1="56" y1="23" x2="136" y2="23" stroke="#F4F5F7" stroke-width="2"/>
<path d="M149.18 29.21C150.151 29.21 150.993 29 151.707 28.58C152.421 28.1553 152.974 27.5697 153.366 26.823C153.758 26.0763 153.954 25.22 153.954 24.254C153.954 24.2307 153.952 24.142 153.947 23.988C153.942 23.834 153.935 23.7267 153.926 23.666H150.3V25.136H151.896C151.742 25.934 151.434 26.5173 150.972 26.886C150.515 27.2547 149.959 27.432 149.306 27.418C148.349 27.404 147.631 27.0867 147.15 26.466C146.674 25.8453 146.436 25.01 146.436 23.96C146.436 22.91 146.674 22.0677 147.15 21.433C147.631 20.7983 148.349 20.488 149.306 20.502C149.95 20.5067 150.477 20.6863 150.888 21.041C151.303 21.391 151.602 21.86 151.784 22.448L153.73 22.168C153.478 21.0667 152.981 20.215 152.239 19.613C151.497 19.011 150.477 18.71 149.18 18.71C148.303 18.71 147.502 18.9153 146.779 19.326C146.06 19.7367 145.486 20.334 145.057 21.118C144.632 21.8973 144.42 22.8447 144.42 23.96C144.42 24.814 144.546 25.5677 144.798 26.221C145.055 26.8743 145.402 27.4227 145.841 27.866C146.284 28.3093 146.793 28.6453 147.367 28.874C147.941 29.098 148.545 29.21 149.18 29.21ZM157.357 29H163.937V27.222H159.261V24.632H163.097V22.854H159.261V20.698H163.937V18.92H157.357V29ZM169.953 29H171.857V20.698H175.035V18.92H166.775V20.698H169.953V29ZM186.347 29.21C186.86 29.21 187.357 29.1447 187.838 29.014C188.323 28.8833 188.757 28.6873 189.14 28.426C189.522 28.16 189.826 27.8263 190.05 27.425C190.278 27.019 190.393 26.5453 190.393 26.004C190.393 25.4953 190.297 25.0753 190.106 24.744C189.919 24.4127 189.679 24.1467 189.385 23.946C189.095 23.7407 188.792 23.582 188.475 23.47C188.157 23.3533 187.868 23.26 187.607 23.19L185.857 22.714C185.642 22.658 185.432 22.588 185.227 22.504C185.021 22.42 184.851 22.3103 184.716 22.175C184.58 22.035 184.513 21.8553 184.513 21.636C184.513 21.398 184.594 21.1927 184.758 21.02C184.926 20.8473 185.14 20.7167 185.402 20.628C185.668 20.5347 185.95 20.4927 186.249 20.502C186.706 20.516 187.126 20.6513 187.509 20.908C187.891 21.1647 188.139 21.538 188.251 22.028L190.309 21.678C190.066 20.7307 189.595 20.005 188.895 19.501C188.195 18.997 187.322 18.738 186.277 18.724C185.586 18.7193 184.956 18.8267 184.387 19.046C183.817 19.2653 183.362 19.599 183.022 20.047C182.681 20.495 182.511 21.0573 182.511 21.734C182.511 22.2147 182.59 22.6137 182.749 22.931C182.912 23.2437 183.115 23.4957 183.358 23.687C183.6 23.8783 183.85 24.0253 184.107 24.128C184.368 24.2307 184.597 24.31 184.793 24.366L187.411 25.136C187.803 25.2527 188.064 25.3997 188.195 25.577C188.325 25.7497 188.391 25.9387 188.391 26.144C188.391 26.424 188.295 26.6597 188.104 26.851C187.917 27.0423 187.677 27.187 187.383 27.285C187.089 27.383 186.785 27.432 186.473 27.432C185.913 27.432 185.413 27.2757 184.975 26.963C184.536 26.6503 184.247 26.2047 184.107 25.626L182.119 25.92C182.221 26.6013 182.464 27.1893 182.847 27.684C183.234 28.174 183.726 28.552 184.324 28.818C184.926 29.0793 185.6 29.21 186.347 29.21ZM196.269 29H198.173V20.698H201.351V18.92H193.091V20.698H196.269V29ZM203.503 29H205.463L206.1 26.9H209.894L210.545 29H212.505L209.425 18.92H206.583L203.503 29ZM206.639 25.122L207.983 20.705L209.348 25.122H206.639ZM215.759 29H217.663V25.584H219.784L221.443 29H223.599L221.779 25.262C222.353 25.0007 222.776 24.6063 223.046 24.079C223.322 23.547 223.459 22.938 223.459 22.252C223.459 21.4027 223.252 20.6793 222.836 20.082C222.421 19.4847 221.761 19.116 220.855 18.976C220.725 18.9527 220.575 18.9387 220.407 18.934C220.244 18.9247 220.113 18.92 220.015 18.92H215.759V29ZM217.663 23.806V20.698H219.931C220.029 20.698 220.137 20.7027 220.253 20.712C220.37 20.7213 220.477 20.74 220.575 20.768C220.832 20.838 221.03 20.957 221.17 21.125C221.31 21.2883 221.406 21.4727 221.457 21.678C221.513 21.8787 221.541 22.07 221.541 22.252C221.541 22.434 221.513 22.6277 221.457 22.833C221.406 23.0337 221.31 23.218 221.17 23.386C221.03 23.5493 220.832 23.666 220.575 23.736C220.477 23.764 220.37 23.7827 220.253 23.792C220.137 23.8013 220.029 23.806 219.931 23.806H217.663ZM229.476 29H231.38V20.698H234.558V18.92H226.298V20.698H229.476V29ZM237.683 29H244.263V27.222H239.587V24.632H243.423V22.854H239.587V20.698H244.263V18.92H237.683V29ZM247.941 29H251.203C251.282 29 251.446 28.9977 251.693 28.993C251.94 28.9883 252.178 28.972 252.407 28.944C253.219 28.846 253.907 28.5637 254.472 28.097C255.037 27.6303 255.466 27.0377 255.76 26.319C256.054 25.6003 256.201 24.814 256.201 23.96C256.201 23.106 256.054 22.3197 255.76 21.601C255.466 20.8823 255.037 20.2897 254.472 19.823C253.907 19.3563 253.219 19.074 252.407 18.976C252.178 18.948 251.94 18.9317 251.693 18.927C251.446 18.9223 251.282 18.92 251.203 18.92H247.941V29ZM249.873 27.208V20.712H251.203C251.329 20.712 251.499 20.7143 251.714 20.719C251.929 20.7237 252.122 20.7447 252.295 20.782C252.72 20.866 253.072 21.0643 253.352 21.377C253.632 21.6897 253.84 22.0723 253.975 22.525C254.115 22.9777 254.185 23.456 254.185 23.96C254.185 24.4407 254.117 24.9073 253.982 25.36C253.851 25.8127 253.646 26.2 253.366 26.522C253.091 26.844 252.734 27.0493 252.295 27.138C252.122 27.1707 251.929 27.1917 251.714 27.201C251.499 27.2057 251.329 27.208 251.203 27.208H249.873Z" fill="#F4F5F7"/>
</svg>
